<svg xmlns="http://www.w3.org/2000/svg" viewBox="0 0 146.5 146.5"><g id="Layer_2" data-name="Layer 2"><g id="Layer_4" data-name="Layer 4"><path d="M73.25,0A73.25,73.25,0,1,0,146.5,73.25,73.33,73.33,0,0,0,73.25,0ZM55.18,73.81H91.32v.11a16.83,16.83,0,0,1,16.76,15.57H38.42A16.83,16.83,0,0,1,55.18,73.92ZM85.55,53.72H61V32a12.3,12.3,0,0,1,24.6,0Zm13.56,2.5V71.31H47.39V56.22ZM38.35,134.76V92h69.79v42.77a70.51,70.51,0,0,1-69.79,0Zm72.29-1.49V90.74a19.33,19.33,0,0,0-10-16.93h1V53.72H88.05V32a14.8,14.8,0,0,0-29.6,0V53.72H44.89V73.81h1a19.32,19.32,0,0,0-10,16.93v42.53a70.76,70.76,0,1,1,74.79,0Z"/></g></g></svg>