<svg xmlns="http://www.w3.org/2000/svg" viewBox="0 0 146.5 146.5"><g id="Layer_2" data-name="Layer 2"><g id="Layer_4" data-name="Layer 4"><path d="M73.25,0A73.25,73.25,0,1,0,146.5,73.25,73.33,73.33,0,0,0,73.25,0ZM46.11,138.58,32.57,56.14H114l-13.62,82.44a70.66,70.66,0,0,1-54.28,0Zm68.32-84.94h-3.72V38.06H117Zm-6.22,0H92.74V38.06h15.47Zm-18,0H74.5V38.06H90.24ZM72,53.64H56.31V38.06H72Zm-18.19,0H38.43V38.06H53.81Zm-17.88,0H32.16L29.6,38.06h6.33Zm67.19,83.72L120,35.56H26.65l16.73,101.8a70.75,70.75,0,1,1,59.74,0Z"/></g></g></svg>