<svg xmlns="http://www.w3.org/2000/svg" viewBox="0 0 146.5 146.5"><g id="Layer_2" data-name="Layer 2"><g id="Layer_4" data-name="Layer 4"><path d="M73.25,0A73.25,73.25,0,1,0,146.5,73.25,73.33,73.33,0,0,0,73.25,0Zm0,144A70.75,70.75,0,1,1,144,73.25,70.83,70.83,0,0,1,73.25,144Z"/><path d="M115,61.58a29.11,29.11,0,0,0-4.58-13c-6-9.11-15.55-12.12-19.37-13l-.84-.18-.48.7a24.53,24.53,0,0,1-8.32,7.81c-6.83,3.82-14,3-20.86,2.28s-13.93-1.52-20.29,2.42c-4.23,2.63-7.45,7-9.59,12.91l-.35-.08-1.56-.39.15,47.43.77.32a112.61,112.61,0,0,0,86.66,0l.77-.32V61.06l-1.55.39ZM41.6,50.75c5.63-3.49,12-2.8,18.7-2.06,7.3.8,14.84,1.62,22.36-2.59a26.79,26.79,0,0,0,8.67-7.87c3.94,1,11.92,4,17,11.73a26.63,26.63,0,0,1,4.22,12.16l.3,0A173.55,173.55,0,0,1,73,66.77H73a173.36,173.36,0,0,1-39.82-4.66C35.09,56.86,37.93,53,41.6,50.75Zm73,56.07a110.12,110.12,0,0,1-83.2,0L31.3,64.26a175.7,175.7,0,0,0,41.67,5H73a176.09,176.09,0,0,0,41.6-5Z"/></g></g></svg>