<svg xmlns="http://www.w3.org/2000/svg" viewBox="0 0 146.5 146.5"><defs><style>.cls-1{fill:#425030;}</style></defs><g id="Layer_2" data-name="Layer 2"><g id="Layer_4" data-name="Layer 4"><path class="cls-1" d="M73.25,0A73.25,73.25,0,1,0,146.5,73.25,73.33,73.33,0,0,0,73.25,0ZM2.5,73.25a70.75,70.75,0,1,1,135.4,28.69L56.67,20.72,34.94,42.46l1.06.87c1.71,1.42,16.73,14.38,15,32.58a33.23,33.23,0,0,1-5.51,15.26l-.56.86,48.92,48.91A70.75,70.75,0,0,1,2.5,73.25ZM48.11,91.69a35.59,35.59,0,0,0,5.36-15.54C55.14,58.75,43,46.23,38.63,42.3l18-18,46.12,46.12-38,38Zm48.37,48.37L66.56,110.14l38-38,32.22,32.22A71.13,71.13,0,0,1,96.48,140.06Z"/></g></g></svg>