<svg xmlns="http://www.w3.org/2000/svg" viewBox="0 0 146.5 146.5"><g id="Layer_2" data-name="Layer 2"><g id="Layer_1-2" data-name="Layer 1"><path d="M73.35,146.5a73.24,73.24,0,1,1,26-4.82A73.34,73.34,0,0,1,73.35,146.5Zm0-144a70.87,70.87,0,1,0,28.85,6.2A70.75,70.75,0,0,0,73.3,2.5Zm0,107.7a89.7,89.7,0,0,1-42.1-10.53l-.86-.45L44.51,42.39l.49-.26a60,60,0,0,1,56.52,0l.49.26,14.21,56.83-.86.45A89.84,89.84,0,0,1,73.26,110.2ZM33.2,97.92a86.94,86.94,0,0,0,80.12,0L99.85,44.07a57.56,57.56,0,0,0-53.18,0ZM73.26,54.85A46,46,0,0,1,55.48,51.3l1-2.31a43.76,43.76,0,0,0,33.63,0l1,2.31A46,46,0,0,1,73.26,54.85Z"/></g></g></svg>