<?xml version="1.0" encoding="utf-8"?>
<!-- Generator: Adobe Illustrator 25.3.1, SVG Export Plug-In . SVG Version: 6.00 Build 0)  -->
<svg version="1.1" id="Layer_1" xmlns="http://www.w3.org/2000/svg" xmlns:xlink="http://www.w3.org/1999/xlink" x="0px" y="0px"
	 viewBox="0 0 146.5 146.5" style="enable-background:new 0 0 146.5 146.5;" xml:space="preserve">
<style type="text/css">
	.st0{fill:#425030;}
</style>
<g id="Layer_2_1_">
	<g id="Layer_4">
		<path class="st0" d="M73.2,0C32.8,0,0,32.8,0,73.2s32.8,73.2,73.2,73.2s73.2-32.8,73.2-73.2C146.5,32.8,113.7,0,73.2,0z M73.2,2.5
			c38.7,0,70.2,31.1,70.8,69.8h-33.4c-0.5-20.6-17.6-37-38.2-36.5c-20,0.5-36,16.5-36.5,36.5H2.5C3.1,33.6,34.6,2.5,73.2,2.5z
			 M108.1,72.3H38.4c0.5-19.3,16.4-34.5,35.7-34C92.7,38.7,107.7,53.7,108.1,72.3z M73.2,144c-38.4,0-69.8-30.8-70.7-69.2H144
			C143.1,113.2,111.7,144,73.2,144z"/>
	</g>
</g>
</svg>
