<?xml version="1.0" encoding="utf-8"?>
<!-- Generator: Adobe Illustrator 25.4.1, SVG Export Plug-In . SVG Version: 6.00 Build 0)  -->
<svg version="1.1" id="Layer_1" xmlns="http://www.w3.org/2000/svg" xmlns:xlink="http://www.w3.org/1999/xlink" x="0px" y="0px"
	 viewBox="0 0 123.7 66.9" style="enable-background:new 0 0 123.7 66.9;" xml:space="preserve">
<style type="text/css">
	.st0{fill:#FFFFFF;}
</style>
<g id="Layer_1_00000076567423257112590170000007031599496415145909_">
	<g id="Layer_1_00000164472342952429029200000013052076973923058615_">
	</g>
	<g id="Layer_4_00000183970662993430134630000013036514514689697979_">
		<g>
			<path class="st0" d="M20.7,21.7h0.1l0.2,5h2.5V13.8H12.3v2.6h8.2v0.4c0,4.9-3.1,7.6-8.2,7.6c-5.9,0-9.1-4-9.1-10.7
				s3.5-10.8,9-10.8c4.2,0,7,2.4,8,7l3.1-0.8C22,3.3,18,0,12.3,0C5.2,0,0,5.5,0,13.8C0,22,4.1,27.2,11.6,27.2
				C15.8,27.2,19,25.2,20.7,21.7z"/>
			<path class="st0" d="M31.6,17.1c0-4.7,1.7-7.8,4.4-7.8c1.8,0,2.8,1.2,2.8,3.7c0,0.7-0.1,1.9-0.3,2.8l2.9-0.4
				c0.2-0.8,0.3-2,0.3-2.8c0-3.7-1.8-5.5-4.6-5.5c-2.5,0-4.5,1.6-5.5,4.5h-0.1V7.4h-3.1v19.3h3.1L31.6,17.1L31.6,17.1z"/>
			<path class="st0" d="M53.4,24.5c-3.6,0-6-2.7-6.2-6.9h14.2c0-2.6-0.4-4.7-1.3-6.4c-1.3-2.7-3.8-4.2-7-4.2c-5.3,0-9,4.1-9,10.1
				c0,6.1,3.6,10.1,9.2,10.1c4,0,7-2.1,8.4-5.9l-2.6-0.9C58,23.2,56.2,24.5,53.4,24.5z M53,9.6c2.1,0,3.7,1.1,4.6,2.9
				c0.4,0.8,0.6,1.7,0.6,3h-11C47.7,11.8,49.8,9.6,53,9.6z"/>
			<path class="st0" d="M73.6,24.5c-3.6,0-6-2.7-6.2-6.9h14.2c0-2.6-0.4-4.7-1.3-6.4C79,8.5,76.5,7,73.3,7c-5.3,0-9,4.1-9,10.1
				c0,6.1,3.6,10.1,9.2,10.1c4,0,7-2.1,8.4-5.9l-2.6-0.9C78.2,23.2,76.4,24.5,73.6,24.5z M73.2,9.6c2.1,0,3.7,1.1,4.6,2.9
				c0.4,0.8,0.6,1.7,0.6,3h-11C67.8,11.8,70,9.6,73.2,9.6z"/>
			<path class="st0" d="M88.8,17.3c0-4.8,2.2-7.6,5.8-7.6c3.3,0,4.7,1.8,4.7,6v11.1h3.1V14.9c0-5.2-2.4-7.9-6.6-7.9
				c-3,0-5.6,1.8-6.9,4.9h-0.1V7.4h-3v19.3h3.1L88.8,17.3L88.8,17.3z"/>
			<path class="st0" d="M121.2,20.3c-1.1,2.9-2.9,4.2-5.7,4.2c-3.6,0-6-2.7-6.2-6.9h14.2c0-2.6-0.4-4.7-1.3-6.4
				c-1.4-2.7-3.9-4.2-7.1-4.2c-5.3,0-9,4.1-9,10.1c0,6.1,3.6,10.1,9.2,10.1c4,0,7-2.1,8.4-5.9L121.2,20.3z M115.1,9.6
				c2.1,0,3.7,1.1,4.6,2.9c0.4,0.8,0.6,1.7,0.6,3h-11C109.7,11.8,111.9,9.6,115.1,9.6z"/>
			<path class="st0" d="M23.4,52.6c-5.3-1.6-10.6-1-10.6-5.5c0-3.1,2.3-4.8,5.8-4.8c3.7,0,5.9,1.8,6.7,5.4l3-0.7
				c-1.1-4.8-4.4-7.4-9.6-7.4c-5.3,0-9,2.9-9,7.8c0,1.8,0.6,3.4,1.7,4.5c0.8,0.8,1.9,1.4,3.5,1.9c5.9,1.8,10.7,1,10.7,5.4
				c0,3.2-2.3,5-6.4,5c-4.4,0-7.2-2-7.8-6.1L8.3,59c0.9,5.3,4.9,7.9,10.8,7.9s9.6-3.1,9.6-8c0-2-0.6-3.5-1.8-4.6
				C26,53.6,25.1,53.1,23.4,52.6z"/>
			<path class="st0" d="M37.8,41.5l-3,1.5v4.1h-4v2.4h4v11.4c0,4,1.8,5.8,5.6,5.8c1.4,0,2.3-0.2,3.4-0.5v-2.4
				c-0.7,0.2-1.6,0.3-2.6,0.3c-2.4,0-3.3-1-3.3-3.6v-11h5.9v-2.4h-5.9v-5.6C37.9,41.5,37.8,41.5,37.8,41.5z"/>
			<path class="st0" d="M55.6,46.8c-2.5,0-4.5,1.6-5.5,4.5H50v-4.2h-3v19.3h3.1v-9.6c0-4.7,1.7-7.8,4.4-7.8c1.8,0,2.8,1.2,2.8,3.7
				c0,0.7-0.1,1.9-0.3,2.8l2.9-0.4c0.2-0.8,0.3-2,0.3-2.8C60.2,48.6,58.4,46.8,55.6,46.8z"/>
			<path class="st0" d="M71.9,64.2c-3.6,0-6-2.7-6.2-6.9H80c0-2.6-0.4-4.7-1.3-6.4c-1.4-2.7-3.9-4.2-7.1-4.2c-5.3,0-9,4.1-9,10.1
				c0,6.1,3.6,10.1,9.2,10.1c4,0,7-2.1,8.4-5.9l-2.5-1C76.5,62.9,74.8,64.2,71.9,64.2z M71.6,49.3c2.1,0,3.7,1.1,4.6,2.9
				c0.4,0.8,0.6,1.7,0.6,3h-11C66.2,51.5,68.3,49.3,71.6,49.3z"/>
			<path class="st0" d="M92.1,64.2c-3.6,0-6-2.7-6.2-6.9h14.2c0-2.6-0.4-4.7-1.3-6.4c-1.4-2.7-3.9-4.2-7.1-4.2c-5.3,0-9,4.1-9,10.1
				c0,6.1,3.6,10.1,9.2,10.1c4,0,7-2.1,8.4-5.9l-2.5-1C96.7,62.9,94.9,64.2,92.1,64.2z M91.8,49.3c2.1,0,3.7,1.1,4.6,2.9
				c0.4,0.8,0.6,1.7,0.6,3H86C86.4,51.5,88.5,49.3,91.8,49.3z"/>
			<path class="st0" d="M108.5,41.5l-3.1,1.5v4.1h-4v2.4h4v11.4c0,4,1.8,5.8,5.6,5.8c1.4,0,2.3-0.2,3.4-0.5v-2.4
				c-0.7,0.2-1.6,0.3-2.6,0.3c-2.4,0-3.3-1-3.3-3.6v-11h5.9v-2.4h-5.9V41.5z"/>
		</g>
	</g>
</g>
<g id="Isolation_Mode">
</g>
</svg>
