<?xml version="1.0" encoding="utf-8"?>
<!-- Generator: Adobe Illustrator 25.4.1, SVG Export Plug-In . SVG Version: 6.00 Build 0)  -->
<svg version="1.1" id="Layer_1" xmlns="http://www.w3.org/2000/svg" xmlns:xlink="http://www.w3.org/1999/xlink" x="0px" y="0px"
	 viewBox="0 0 54.2 130.1" style="enable-background:new 0 0 54.2 130.1;" xml:space="preserve">
<style type="text/css">
	.st0{fill:#FFFFFF;}
</style>
<g id="Layer_1_00000145040487497301448990000004573315656323344058_">
	<g id="Layer_1_00000182502205205985049810000011797561071755216517_">
	</g>
	<g id="Layer_4_00000099624990119887204510000000162392814562365368_">
		<g>
			<path class="st0" d="M54.2,45.2V27.1C54.2,12.2,42.1,0,27.1,0S0,12.2,0,27.1V103c0,15,12.2,27.1,27.1,27.1s27.1-12.2,27.1-27.1
				V64H19.5v2.1h32.6V103c0,13.8-11.2,25-25,25s-25-11.2-25-25V27.1c0-13.8,11.2-25,25-25s25,11.2,25,25v18.1H54.2z"/>
			<path class="st0" d="M27.6,43.3c-3.1,0-5.1-1.4-5.5-4.3l-2.2,0.6c0.6,3.7,3.4,5.6,7.6,5.6s6.8-2.2,6.8-5.6c0-1.4-0.4-2.4-1.2-3.2
				c-0.6-0.5-1.2-0.9-2.4-1.2c-3.8-1.2-7.5-0.7-7.5-3.9c0-2.2,1.6-3.4,4.1-3.4c2.6,0,4.2,1.2,4.8,3.8l2.1-0.5
				C33.3,27.9,31,26,27.3,26s-6.4,2-6.4,5.5c0,1.3,0.4,2.4,1.2,3.1c0.6,0.6,1.4,1,2.4,1.3c4.2,1.2,7.6,0.7,7.6,3.8
				C32.1,42,30.5,43.3,27.6,43.3z"/>
			<polygon class="st0" points="28.2,103.6 28.2,87 34.7,87 34.7,85 19.6,85 19.6,87 26,87 26,103.6 			"/>
		</g>
	</g>
</g>
<g id="Isolation_Mode">
</g>
</svg>
