<?xml version="1.0" encoding="utf-8"?>
<!-- Generator: Adobe Illustrator 25.4.1, SVG Export Plug-In . SVG Version: 6.00 Build 0)  -->
<svg version="1.1" id="Layer_1" xmlns="http://www.w3.org/2000/svg" xmlns:xlink="http://www.w3.org/1999/xlink" x="0px" y="0px"
	 viewBox="0 0 54.2 130.1" style="enable-background:new 0 0 54.2 130.1;" xml:space="preserve">
<style type="text/css">
	.st0{fill:#FFFFFF;}
</style>
<g id="Layer_1_00000039856405121923457100000000968006922910436541_">
	<g id="Layer_1_00000124159842604965378130000009498476820914355333_">
	</g>
	<g id="Layer_4_00000003102742775313929420000011538993317808077226_">
		<path class="st0" d="M27.1,0C12.2,0,0,12.2,0,27.1v16v44.3V103c0,15,12.2,27.1,27.1,27.1s27.1-12.2,27.1-27.1V87.4V43.1v-16
			C54.2,12.2,42.1,0,27.1,0z M49.3,15.6L28.1,79.9V2.1C37.4,2.5,45.3,7.8,49.3,15.6z M2.1,55.9l21.5,27.5L2.1,72.9V55.9z M2.1,75.2
			l20.6,10.1H2.1V75.2z M52.2,72.9L30.7,83.5L52.2,56V72.9z M52.2,75.2v10.1H31.6L52.2,75.2z M26.1,2.1v77.8L4.9,15.6
			C8.9,7.8,16.9,2.5,26.1,2.1z M2.1,27.1c0-3.1,0.6-6,1.6-8.7L24.3,81L2.1,52.6v-9.5V27.1z M2.1,103V87.4h24V128
			C12.7,127.4,2.1,116.4,2.1,103z M52.2,103c0,13.5-10.7,24.5-24,25V87.4h24V103z M52.2,52.6L30,81l20.6-62.7c1,2.7,1.6,5.7,1.6,8.7
			v16C52.2,43,52.2,52.6,52.2,52.6z"/>
	</g>
</g>
<g id="Isolation_Mode">
</g>
</svg>
