<?xml version="1.0" encoding="utf-8"?>
<!-- Generator: Adobe Illustrator 25.4.1, SVG Export Plug-In . SVG Version: 6.00 Build 0)  -->
<svg version="1.1" id="Layer_1" xmlns="http://www.w3.org/2000/svg" xmlns:xlink="http://www.w3.org/1999/xlink" x="0px" y="0px"
	 viewBox="0 0 228.4 48.8" style="enable-background:new 0 0 228.4 48.8;" xml:space="preserve">
<style type="text/css">
	.st0{fill:#FFFFFF;}
</style>
<g id="Layer_1_00000141416533958698408040000010095674256658911406_">
	<g id="Layer_1_00000093872806983775467410000000493740642971021737_">
	</g>
	<g id="Layer_4_00000083086903058021509360000013135931415506745761_">
		<g>
			<g>
				<path class="st0" d="M12,16h8v0.4c0,4.7-3,7.4-8,7.4c-5.7,0-8.8-3.9-8.8-10.4S6.6,2.9,11.9,2.9c4.1,0,6.8,2.4,7.8,6.8l3-0.8
					C21.3,3.2,17.5,0,11.9,0C5,0,0,5.3,0,13.4c0,7.9,4,13,11.2,13c4.2,0,7.2-1.9,8.9-5.3h0.1l0.2,4.9h2.4V13.5H12V16z"/>
				<path class="st0" d="M35.6,6.9c-2.4,0-4.3,1.6-5.3,4.4h-0.1V7.2h-3V26h3v-9.4c0-4.6,1.6-7.5,4.2-7.5c1.7,0,2.7,1.2,2.7,3.6
					c0,0.7-0.1,1.9-0.3,2.7l2.8-0.4c0.2-0.8,0.3-1.9,0.3-2.7C40.1,8.8,38.3,6.9,35.6,6.9z"/>
				<path class="st0" d="M51.1,23.9c-3.5,0-5.8-2.6-6-6.7H59c0-2.5-0.4-4.6-1.3-6.2c-1.3-2.6-3.8-4.1-6.9-4.1c-5.1,0-8.8,4-8.8,9.8
					c0,5.9,3.5,9.8,9,9.8c3.9,0,6.8-2,8.2-5.7l-2.5-0.9C55.6,22.6,53.9,23.9,51.1,23.9z M50.8,9.3c2,0,3.6,1,4.5,2.8
					c0.4,0.8,0.6,1.6,0.6,2.9H45.2C45.6,11.5,47.7,9.3,50.8,9.3z"/>
				<path class="st0" d="M70.4,23.9c-3.5,0-5.8-2.6-6-6.7h13.8c0-2.5-0.4-4.6-1.3-6.2c-1.3-2.6-3.8-4.1-6.9-4.1
					c-5.1,0-8.8,4-8.8,9.8c0,5.9,3.5,9.8,9,9.8c3.9,0,6.8-2,8.2-5.7l-2.4-1C74.9,22.6,73.2,23.9,70.4,23.9z M70,9.3
					c2,0,3.6,1,4.5,2.8c0.4,0.8,0.6,1.6,0.6,2.9H64.5C64.8,11.5,66.9,9.3,70,9.3z"/>
				<path class="st0" d="M91.5,6.8c-2.9,0-5.4,1.7-6.7,4.8h-0.1V7.2h-2.9V26h3v-9.2c0-4.6,2.1-7.4,5.6-7.4c3.2,0,4.5,1.8,4.5,5.8V26
					h3V14.5C97.9,9.4,95.6,6.8,91.5,6.8z"/>
				<path class="st0" d="M110.4,23.9c-3.5,0-5.8-2.6-6-6.7h13.8c0-2.5-0.4-4.6-1.3-6.2c-1.3-2.6-3.8-4.1-6.9-4.1
					c-5.1,0-8.8,4-8.8,9.8c0,5.9,3.5,9.8,9,9.8c3.9,0,6.8-2,8.2-5.7l-2.5-0.9C114.9,22.6,113.1,23.9,110.4,23.9z M110,9.3
					c2,0,3.6,1,4.5,2.8c0.4,0.8,0.6,1.6,0.6,2.9h-10.7C104.8,11.5,106.9,9.3,110,9.3z"/>
				<path class="st0" d="M141.6,12.6c-5.2-1.6-10.3-1-10.3-5.3c0-3,2.2-4.6,5.7-4.6c3.6,0,5.8,1.7,6.5,5.3l2.9-0.7
					C145.2,2.5,142.1,0,137,0c-5.2,0-8.8,2.8-8.8,7.5c0,1.8,0.6,3.3,1.6,4.3c0.8,0.8,1.9,1.4,3.4,1.8c5.7,1.7,10.4,1,10.4,5.2
					c0,3.1-2.2,4.9-6.2,4.9c-4.2,0-7-1.9-7.6-5.9l-3,0.9c0.9,5.2,4.7,7.7,10.5,7.7c5.7,0,9.4-3,9.4-7.7c0-2-0.6-3.4-1.7-4.4
					C144.1,13.6,143.2,13.1,141.6,12.6z"/>
				<path class="st0" d="M155.3,1.8l-3,1.5v4h-3.9v2.4h3.9v11.1c0,3.9,1.7,5.7,5.5,5.7c1.4,0,2.3-0.2,3.3-0.5v-2.4
					c-0.7,0.2-1.5,0.3-2.5,0.3c-2.3,0-3.2-1-3.2-3.5V9.6h5.7V7.2h-5.7V1.8H155.3z"/>
				<path class="st0" d="M172.1,6.9c-2.4,0-4.3,1.6-5.3,4.4h-0.1V7.2h-3V26h3v-9.4c0-4.6,1.6-7.5,4.2-7.5c1.7,0,2.7,1.2,2.7,3.6
					c0,0.7-0.1,1.9-0.3,2.7l2.8-0.4c0.2-0.8,0.3-1.9,0.3-2.7C176.6,8.8,174.9,6.9,172.1,6.9z"/>
				<path class="st0" d="M187.6,23.9c-3.5,0-5.8-2.6-6-6.7h13.8c0-2.5-0.4-4.6-1.3-6.2c-1.3-2.6-3.8-4.1-6.9-4.1
					c-5.1,0-8.8,4-8.8,9.8c0,5.9,3.5,9.8,9,9.8c3.9,0,6.8-2,8.2-5.7l-2.5-0.9C192.1,22.6,190.4,23.9,187.6,23.9z M187.3,9.3
					c2,0,3.6,1,4.5,2.8c0.4,0.8,0.6,1.6,0.6,2.9h-10.7C182.1,11.5,184.2,9.3,187.3,9.3z"/>
				<path class="st0" d="M206.9,23.9c-3.5,0-5.8-2.6-6-6.7h13.8c0-2.5-0.4-4.6-1.3-6.2c-1.3-2.6-3.8-4.1-6.9-4.1
					c-5.1,0-8.8,4-8.8,9.8c0,5.9,3.5,9.8,9,9.8c3.9,0,6.8-2,8.2-5.7l-2.5-0.9C211.4,22.6,209.7,23.9,206.9,23.9z M206.6,9.3
					c2,0,3.6,1,4.5,2.8c0.4,0.8,0.6,1.6,0.6,2.9H201C201.3,11.5,203.4,9.3,206.6,9.3z"/>
				<path class="st0" d="M228.3,9.6V7.2h-5.7V1.8l-3,1.5v4h-3.9v2.4h3.9v11.1c0,3.9,1.7,5.7,5.5,5.7c1.4,0,2.3-0.2,3.3-0.5v-2.4
					c-0.7,0.2-1.5,0.3-2.5,0.3c-2.3,0-3.2-1-3.2-3.5V9.6H228.3z"/>
			</g>
			<g>
				<path class="st0" d="M55.1,48.6l-2.8-7.7l0,0v7.7h-1v-8.7h1.6l2.7,7.4l0,0l2.7-7.4h1.6v8.7h-1v-7.7l0,0l-2.8,7.7H55.1z"/>
				<path class="st0" d="M62.5,48.6v-8.7h5.9v0.9h-4.9v3.1h4.3v0.9h-4.3v3h4.9v0.9h-5.9V48.6z"/>
				<path class="st0" d="M78.1,44.2c0,2.6-1.7,4.4-4.3,4.4h-3.1v-8.7h3.1C76.3,39.8,78.1,41.6,78.1,44.2z M71.7,40.7v7h2.1
					c2,0,3.2-1.4,3.2-3.5s-1.1-3.5-3.2-3.5H71.7z"/>
				<path class="st0" d="M80.2,39.8h1.1v8.7h-1.1V39.8z"/>
				<path class="st0" d="M87.3,47.8c1.5,0,2.1-0.8,2.3-1.8h1c-0.3,1.6-1.4,2.7-3.3,2.7c-2.3,0-3.9-1.8-3.9-4.5s1.7-4.5,3.9-4.5
					c1.9,0,3.1,1.1,3.3,2.7h-1c-0.2-1-0.8-1.8-2.3-1.8c-1.8,0-2.8,1.4-2.8,3.6C84.5,46.3,85.5,47.8,87.3,47.8z"/>
				<path class="st0" d="M97.9,46.1h-4.2l-1,2.4h-1.1l3.5-8.7h1.2l3.6,8.7h-1.1L97.9,46.1z M94.1,45.2h3.5l-1.7-4.4l0,0L94.1,45.2z"
					/>
				<path class="st0" d="M101.7,39.8h1.1v7.9h4.7v0.9h-5.8C101.7,48.6,101.7,39.8,101.7,39.8z"/>
				<path class="st0" d="M116.1,47.8c1.5,0,2.1-0.8,2.3-1.8h1c-0.3,1.6-1.4,2.7-3.3,2.7c-2.3,0-3.9-1.8-3.9-4.5s1.7-4.5,3.9-4.5
					c1.9,0,3.1,1.1,3.3,2.7h-1c-0.2-1-0.8-1.8-2.3-1.8c-1.8,0-2.8,1.4-2.8,3.6C113.3,46.3,114.3,47.8,116.1,47.8z"/>
				<path class="st0" d="M126.7,46.1h-4.2l-1,2.4h-1.1l3.5-8.7h1.2l3.6,8.7h-1.1L126.7,46.1z M122.9,45.2h3.5l-1.7-4.4l0,0
					L122.9,45.2z"/>
				<path class="st0" d="M136.5,46.8L136.5,46.8v-7h1v8.7h-1l-5-7.5l0,0v7.5h-1v-8.7h1.3L136.5,46.8z"/>
				<path class="st0" d="M146.2,46.8L146.2,46.8v-7h1v8.7h-1l-5-7.5l0,0v7.5h-1v-8.7h1.3L146.2,46.8z"/>
				<path class="st0" d="M155.1,46.1H151l-1,2.4h-1.1l3.5-8.7h1.2l3.6,8.7h-1.1L155.1,46.1z M151.3,45.2h3.5l-1.7-4.4l0,0
					L151.3,45.2z"/>
				<path class="st0" d="M158.9,48.6v-8.7h3.1c1.9,0,3.1,0.8,3.1,2.3c0,0.8-0.6,1.6-1.4,1.9c1.1,0.3,1.8,1.1,1.8,2.1
					c0,1.6-1.1,2.5-3.1,2.5L158.9,48.6L158.9,48.6z M162.1,43.7c1.3,0,1.9-0.6,1.9-1.5c0-1-0.6-1.5-1.9-1.5H160v3H162.1z M160,47.7
					h2.4c1.3,0,2.1-0.6,2.1-1.6s-0.8-1.6-2.1-1.6H160V47.7z"/>
				<path class="st0" d="M167.6,39.8h1.1v8.7h-1.1V39.8z"/>
				<path class="st0" d="M171.7,46c0.1,1.4,1.3,1.9,2.6,1.9c1.2,0,2.2-0.6,2.2-1.7c0-0.7-0.4-1.2-1.6-1.4l-1.7-0.3
					c-1.2-0.2-2.2-0.8-2.2-2.3c0-1.4,1.2-2.5,3.1-2.5c1.9,0,3.1,0.8,3.3,2.4h-1c-0.1-1-1-1.5-2.3-1.5s-2,0.7-2,1.6
					c0,0.9,0.5,1.2,1.6,1.4l1.7,0.4c1.3,0.3,2.2,0.9,2.2,2.3c0,1.5-1.3,2.5-3.2,2.5s-3.5-0.8-3.6-2.7h0.9V46z"/>
			</g>
		</g>
	</g>
</g>
<g id="Isolation_Mode">
</g>
</svg>
