<svg xmlns="http://www.w3.org/2000/svg" viewBox="0 0 146.5 146.5"><defs><style>.cls-1{fill:#425030;}</style></defs><g id="Layer_2" data-name="Layer 2"><g id="Layer_4" data-name="Layer 4"><path class="cls-1" d="M73.25,0A73.25,73.25,0,1,0,146.5,73.25,73.33,73.33,0,0,0,73.25,0Zm0,144A70.75,70.75,0,1,1,144,73.25,70.83,70.83,0,0,1,73.25,144Z"/><path class="cls-1" d="M53.93,44.71l-1.14,2.6c-.8,1.8-19.5,44.36-19.5,54.65,0,10.83,9.26,19.63,20.64,19.63s20.65-8.8,20.65-19.63c0-10.29-18.71-52.85-19.51-54.65Zm0,74.38c-10,0-18.14-7.68-18.14-17.13,0-8.36,14-41.4,18.14-51,4.15,9.61,18.15,42.65,18.15,51C72.08,111.41,63.94,119.09,53.93,119.09Z"/><path class="cls-1" d="M100,23.46l-1.14,2.6c-.52,1.17-12.65,28.78-12.65,35.53,0,7.24,6.19,13.13,13.79,13.13s13.79-5.89,13.79-13.13c0-6.75-12.13-34.36-12.65-35.53Zm0,48.76c-6.23,0-11.29-4.77-11.29-10.63,0-4.67,7.33-22.67,11.29-31.89,4,9.22,11.29,27.22,11.29,31.89C111.32,67.45,106.26,72.22,100,72.22Z"/></g></g></svg>