<svg xmlns="http://www.w3.org/2000/svg" viewBox="0 0 146.5 146.5"><defs><style>.cls-1{fill:#425030;}</style></defs><g id="Layer_2" data-name="Layer 2"><g id="Layer_4" data-name="Layer 4"><path class="cls-1" d="M73.25,0A73.25,73.25,0,1,0,146.5,73.25,73.33,73.33,0,0,0,73.25,0Zm0,144A70.75,70.75,0,1,1,144,73.25,70.83,70.83,0,0,1,73.25,144Z"/><path class="cls-1" d="M73.09,16.11,72,18.71c-1.19,2.68-29,65.92-29,81.12,0,15.77,13.51,28.6,30.12,28.6s30.12-12.83,30.12-28.6c0-15.2-27.79-78.44-29-81.12Zm0,109.82c-15.23,0-27.62-11.71-27.62-26.1,0-13,22.27-65.15,27.62-77.49,5.35,12.34,27.62,64.51,27.62,77.49C100.71,114.22,88.32,125.93,73.09,125.93Z"/></g></g></svg>