<svg xmlns="http://www.w3.org/2000/svg" viewBox="0 0 146.5 146.5"><g id="Layer_2" data-name="Layer 2"><g id="Layer_4" data-name="Layer 4"><path d="M73.25,0A73.25,73.25,0,1,0,146.5,73.25,73.33,73.33,0,0,0,73.25,0Zm0,2.5A70.81,70.81,0,0,1,144,72.29H110.62a37.38,37.38,0,0,0-74.74,0H2.52A70.82,70.82,0,0,1,73.25,2.5Zm34.87,69.79H38.38a34.88,34.88,0,0,1,69.74,0ZM73.25,144A70.82,70.82,0,0,1,2.54,74.79H144A70.83,70.83,0,0,1,73.25,144Z"/><rect x="72" y="14.7" width="2.5" height="8.96"/><rect x="51.19" y="18.83" width="2.5" height="8.96" transform="translate(-4.93 21.84) rotate(-22.5)"/><rect x="33.56" y="30.62" width="2.5" height="8.96" transform="translate(-14.62 34.89) rotate(-45)"/><rect x="21.77" y="48.25" width="2.5" height="8.96" transform="translate(-34.51 53.82) rotate(-67.5)"/><rect x="118.99" y="51.49" width="8.96" height="2.5" transform="translate(-10.78 51.26) rotate(-22.5)"/><rect x="107.21" y="33.85" width="8.96" height="2.5" transform="translate(7.89 89.26) rotate(-45)"/><rect x="89.57" y="22.06" width="8.96" height="2.5" transform="translate(36.52 101.29) rotate(-67.5)"/></g></g></svg>