<svg xmlns="http://www.w3.org/2000/svg" viewBox="0 0 146.5 146.5"><g id="Layer_2" data-name="Layer 2"><g id="Layer_4" data-name="Layer 4"><path d="M73.25,0A73.25,73.25,0,1,0,146.5,73.25,73.33,73.33,0,0,0,73.25,0ZM74.5,122.28a53,53,0,0,1,51.45-48A53,53,0,0,1,74.5,125.89Zm-72-49A70.82,70.82,0,0,1,72,2.53V59.16A41,41,0,0,0,33.56,32.31v1.25H32.31A41,41,0,0,0,72,74.47v47.72c-.15,1.64-.24,3.31-.24,5H72V144A70.82,70.82,0,0,1,2.5,73.25ZM72,72A38.48,38.48,0,0,1,34.84,34.84,38.48,38.48,0,0,1,72,72Zm2.53,72V128.39a55.52,55.52,0,0,0,54-55.43h-1.25V71.71A55.55,55.55,0,0,0,74.5,110V2.53A70.73,70.73,0,0,1,74.5,144Z"/></g></g></svg>