<svg xmlns="http://www.w3.org/2000/svg" viewBox="0 0 145.97 144"><defs><style>.cls-1{fill:#425030;}</style></defs><g id="Layer_2" data-name="Layer 2"><g id="Layer_4" data-name="Layer 4"><path class="cls-1" d="M73,0C32.74,0,0,32.3,0,72s32.74,72,73,72,73-32.3,73-72S113.23,0,73,0Zm0,2.46c38.87,0,70.49,31.19,70.49,69.54a68.35,68.35,0,0,1-6.66,29.46H56.47a55.43,55.43,0,0,0-50-31.37c-1.3,0-2.6.07-3.89.15C3.5,32.71,34.72,2.46,73,2.46ZM2.52,72.71c1.3-.09,2.61-.16,3.92-.16A53,53,0,0,1,53.7,101.46H9.16A68.17,68.17,0,0,1,2.52,72.71ZM73,141.54A70.63,70.63,0,0,1,10.4,103.92H135.57A70.64,70.64,0,0,1,73,141.54Z"/><path class="cls-1" d="M100.81,55.84a24.92,24.92,0,0,1-16.07,23.3l-3.28,1.27,3.36,1a28.09,28.09,0,0,0,8.36,1.26,27.49,27.49,0,1,0,0-55A28.12,28.12,0,0,0,83,29.64l-3.27,1.28,3.36,1A25,25,0,0,1,100.81,55.84ZM93.18,30.18A25,25,0,1,1,88.93,79.9a27.33,27.33,0,0,0-1.76-49A25.21,25.21,0,0,1,93.18,30.18Z"/></g></g></svg>