<?xml version="1.0" encoding="utf-8"?>
<!-- Generator: Adobe Illustrator 25.4.1, SVG Export Plug-In . SVG Version: 6.00 Build 0)  -->
<svg version="1.1" id="Layer_1" xmlns="http://www.w3.org/2000/svg" xmlns:xlink="http://www.w3.org/1999/xlink" x="0px" y="0px"
	 viewBox="0 0 87.8 140.1" style="enable-background:new 0 0 87.8 140.1;" xml:space="preserve">
<g id="Layer_1_00000054974277122755472400000011574492664281549742_">
</g>
<g id="Layer_4_00000063635589740322654780000000670746550638822785_">
	<g>
		<path d="M14.6,108.2L14.6,108.2l0.2,3.6h1.8v-9.1H8.7v1.8h5.8v0.3c0,3.4-2.2,5.4-5.8,5.4c-4.2,0-6.4-2.9-6.4-7.5
			C2.3,98,4.7,95,8.6,95c3,0,4.9,1.7,5.7,4.9l2.2-0.6c-1-4.1-3.8-6.5-7.8-6.5c-5,0-8.7,3.9-8.7,9.8c0,5.8,2.9,9.4,8.2,9.4
			C11.2,112,13.4,110.6,14.6,108.2z"/>
		<path d="M22.3,104.9c0-3.3,1.2-5.5,3.1-5.5c1.2,0,2,0.9,2,2.6c0,0.5-0.1,1.4-0.2,1.9l2.1-0.3c0.1-0.6,0.2-1.4,0.2-1.9
			c0-2.6-1.2-3.9-3.2-3.9c-1.8,0-3.1,1.2-3.9,3.2l0,0v-3h-2.2v13.6h2.2v-6.7H22.3z"/>
		<path d="M37.8,110.2c-2.6,0-4.2-1.9-4.3-4.8h10.1c0-1.8-0.3-3.3-0.9-4.5c-1-1.9-2.7-3-5-3c-3.7,0-6.4,2.9-6.4,7.1
			c0,4.3,2.5,7.1,6.5,7.1c2.8,0,4.9-1.5,6-4.2l-1.8-0.6C41.1,109.3,39.8,110.2,37.8,110.2z M37.6,99.6c1.5,0,2.6,0.7,3.2,2.1
			c0.3,0.6,0.4,1.2,0.5,2.1h-7.8C33.8,101.2,35.3,99.6,37.6,99.6z"/>
		<path d="M52.1,110.2c-2.6,0-4.2-1.9-4.3-4.8h10.1c0-1.8-0.3-3.3-0.9-4.5c-1-1.9-2.7-3-5-3c-3.7,0-6.4,2.9-6.4,7.1
			c0,4.3,2.5,7.1,6.5,7.1c2.8,0,4.9-1.5,6-4.2l-1.8-0.6C55.4,109.3,54.2,110.2,52.1,110.2z M51.9,99.6c1.5,0,2.6,0.7,3.2,2.1
			c0.3,0.6,0.4,1.2,0.5,2.1h-7.8C48.1,101.2,49.6,99.6,51.9,99.6z"/>
		<path d="M62.9,105.1c0-3.4,1.6-5.4,4.1-5.4c2.3,0,3.3,1.3,3.3,4.2v7.8h2.2v-8.4c0-3.6-1.7-5.5-4.7-5.5c-2.1,0-3.9,1.2-4.9,3.5
			h-0.1v-3.2h-2.1v13.6h2.2C62.9,111.7,62.9,105.1,62.9,105.1z"/>
		<path d="M85.9,107.2c-0.8,2-2,3-4.1,3c-2.6,0-4.2-1.9-4.3-4.8h10.1c0-1.8-0.3-3.3-0.9-4.5c-1-1.9-2.7-3-5-3
			c-3.7,0-6.4,2.9-6.4,7.1c0,4.3,2.5,7.1,6.5,7.1c2.8,0,4.9-1.5,6-4.2L85.9,107.2z M81.6,99.6c1.5,0,2.6,0.7,3.2,2.1
			c0.3,0.6,0.4,1.2,0.5,2.1h-7.8C77.8,101.2,79.3,99.6,81.6,99.6z"/>
		<path d="M16.5,130c-3.8-1.2-7.5-0.7-7.5-3.9c0-2.2,1.6-3.4,4.1-3.4c2.6,0,4.2,1.2,4.8,3.8l2.1-0.4c-0.8-3.4-3.1-5.2-6.8-5.2
			s-6.4,2-6.4,5.5c0,1.3,0.4,2.4,1.2,3.1c0.6,0.6,1.4,1,2.4,1.3c4.2,1.2,7.6,0.7,7.6,3.8c0,2.3-1.6,3.6-4.5,3.6
			c-3.1,0-5.1-1.4-5.5-4.3l-2.2,0.6c0.6,3.7,3.4,5.6,7.6,5.6s6.8-2.2,6.8-5.6c0-1.4-0.4-2.4-1.2-3.2C18.4,130.7,17.7,130.3,16.5,130
			z"/>
		<path d="M26.8,122.1l-2.2,1.1v2.9h-2.9v1.7h2.8v8.1c0,2.8,1.2,4.1,4,4.1c1,0,1.7-0.1,2.4-0.4v-1.7c-0.5,0.1-1.1,0.2-1.8,0.2
			c-1.7,0-2.3-0.7-2.3-2.5v-7.8H31v-1.7h-4.2V122.1z"/>
		<path d="M39.4,125.9c-1.8,0-3.1,1.2-3.9,3.2l0,0v-3h-2.2v13.6h2.2v-6.8c0-3.3,1.2-5.5,3.1-5.5c1.2,0,2,0.9,2,2.6
			c0,0.5-0.1,1.4-0.2,1.9l2.1-0.3c0.1-0.6,0.2-1.4,0.2-1.9C42.6,127.2,41.4,125.9,39.4,125.9z"/>
		<path d="M51,138.2c-2.6,0-4.2-1.9-4.3-4.8h10.1c0-1.8-0.3-3.3-0.9-4.5c-1-1.9-2.7-3-5-3c-3.7,0-6.4,2.9-6.4,7.1
			c0,4.3,2.5,7.1,6.5,7.1c2.8,0,4.9-1.5,6-4.2l-1.8-0.6C54.2,137.3,53,138.2,51,138.2z M50.7,127.6c1.5,0,2.6,0.7,3.2,2.1
			c0.3,0.6,0.4,1.2,0.5,2.1h-7.8C46.9,129.2,48.5,127.6,50.7,127.6z"/>
		<path d="M65.3,138.2c-2.6,0-4.2-1.9-4.3-4.8h10c0-1.8-0.3-3.3-0.9-4.5c-1-1.9-2.7-3-5-3c-3.7,0-6.4,2.9-6.4,7.1
			c0,4.3,2.5,7.1,6.5,7.1c2.8,0,4.9-1.5,6-4.2l-1.8-0.6C68.6,137.3,67.3,138.2,65.3,138.2z M65.1,127.6c1.5,0,2.6,0.7,3.2,2.1
			c0.3,0.6,0.4,1.2,0.5,2.1H61C61.3,129.2,62.8,127.6,65.1,127.6z"/>
		<path d="M77,122.1l-2.2,1.1v2.9H72v1.7h2.8v8.1c0,2.8,1.2,4.1,4,4.1c1,0,1.7-0.1,2.4-0.4v-1.7c-0.5,0.1-1.1,0.2-1.8,0.2
			c-1.7,0-2.3-0.7-2.3-2.5v-7.8h4.2v-1.7H77V122.1z"/>
		<path d="M60.1,63.7v-9.9V26.1v-9.7c0-9-7.3-16.4-16.4-16.4S27.4,7.4,27.4,16.5v9.6v27.7v9.9c0,9,7.3,16.4,16.4,16.4
			S60.1,72.8,60.1,63.7z M58.9,44.4l-12.9,7l12.9-17.3V44.4z M28.6,34.1l12.9,17.2l-12.9-7V34.1z M28.6,45.8l12.7,6.8H28.6V45.8z
			 M58.9,45.8v6.8H46.2L58.9,45.8z M58.9,26.1V32L45.4,50l12-40.1c0.9,2,1.5,4.2,1.5,6.5V26.1z M56.5,8.4L44.4,49V1.4
			C49.5,1.6,54,4.4,56.5,8.4z M43.1,1.4V49L31,8.4C33.5,4.4,38,1.6,43.1,1.4z M28.6,16.5c0-2.3,0.5-4.5,1.5-6.5l12,40.1l-13.5-18v-6
			C28.6,26.1,28.6,16.5,28.6,16.5z M28.6,63.7v-9.9h14.5v25C35.1,78.5,28.6,71.9,28.6,63.7z M44.4,78.8v-25h14.5v9.9
			C58.9,71.9,52.4,78.5,44.4,78.8z"/>
	</g>
</g>
</svg>
