<?xml version="1.0" encoding="utf-8"?>
<!-- Generator: Adobe Illustrator 25.4.1, SVG Export Plug-In . SVG Version: 6.00 Build 0)  -->
<svg version="1.1" id="Layer_1" xmlns="http://www.w3.org/2000/svg" xmlns:xlink="http://www.w3.org/1999/xlink" x="0px" y="0px"
	 viewBox="0 0 238.7 27.4" style="enable-background:new 0 0 238.7 27.4;" xml:space="preserve">
<g id="Layer_1_00000098216511071282518870000010072239223613149090_">
</g>
<g id="Layer_4_00000042012250749457741900000009322739446905907598_">
	<g>
		<path d="M12.3,16.5h8.2v0.4c0,4.9-3.1,7.6-8.2,7.6c-5.9,0-9.1-4-9.1-10.7S6.7,3,12.2,3c4.2,0,7,2.4,8,7l3.1-0.8
			C22,3.4,18,0.1,12.3,0.1C5.2,0.1,0,5.6,0,13.9c0,8.2,4.1,13.4,11.6,13.4c4.3,0,7.4-2,9.1-5.5h0.1l0.2,5h2.5V14H12.3V16.5z"/>
		<path d="M37,7.2c-2.5,0-4.5,1.6-5.5,4.5h-0.1V7.5h-3.1v19.3h3.1v-9.6c0-4.7,1.7-7.8,4.4-7.8c1.8,0,2.8,1.2,2.8,3.7
			c0,0.7-0.1,1.9-0.3,2.8l2.9-0.4c0.2-0.9,0.3-2,0.3-2.8C41.6,9.1,39.8,7.2,37,7.2z"/>
		<path d="M53.4,24.7c-3.6,0-6-2.7-6.2-6.9h14.2c0-2.6-0.4-4.7-1.3-6.4c-1.3-2.7-3.8-4.3-7-4.3c-5.3,0-9,4.1-9,10.1
			c0,6.1,3.6,10.1,9.2,10.1c4,0,7-2.1,8.4-5.9l-2.6-0.9C58,23.3,56.2,24.7,53.4,24.7z M53,9.7c2.1,0,3.7,1.1,4.6,2.9
			c0.4,0.8,0.6,1.7,0.6,3h-11C47.7,11.9,49.8,9.7,53,9.7z"/>
		<path d="M73.6,24.7c-3.6,0-6-2.7-6.2-6.9h14.2c0-2.6-0.4-4.7-1.3-6.4c-1.3-2.7-3.8-4.3-7-4.3c-5.3,0-9,4.1-9,10.1
			c0,6.1,3.6,10.1,9.2,10.1c4,0,7-2.1,8.4-5.9l-2.6-0.9C78.2,23.3,76.4,24.7,73.6,24.7z M73.2,9.7c2.1,0,3.7,1.1,4.6,2.9
			c0.4,0.8,0.6,1.7,0.6,3h-11C67.8,11.9,70,9.7,73.2,9.7z"/>
		<path d="M95.7,7.1c-3,0-5.6,1.8-6.9,4.9h-0.1V7.5h-3v19.3h3.1v-9.5c0-4.8,2.2-7.6,5.8-7.6c3.3,0,4.7,1.8,4.7,6v11.1h3.1V15
			C102.3,9.8,99.9,7.1,95.7,7.1z"/>
		<path d="M115.5,24.7c-3.6,0-6-2.7-6.2-6.9h14.2c0-2.6-0.4-4.7-1.3-6.4c-1.4-2.7-3.9-4.2-7.1-4.2c-5.3,0-9,4.1-9,10.1
			c0,6.1,3.6,10.1,9.2,10.1c4,0,7-2.1,8.4-5.9l-2.6-0.9C120.1,23.3,118.3,24.7,115.5,24.7z M115.1,9.7c2.1,0,3.7,1.1,4.6,2.9
			c0.4,0.8,0.6,1.7,0.6,3h-11C109.7,11.9,111.9,9.7,115.1,9.7z"/>
		<path d="M147.6,13c-5.3-1.6-10.6-1-10.6-5.5c0-3.1,2.3-4.8,5.8-4.8c3.7,0,5.9,1.8,6.7,5.4l3-0.7c-1.1-4.8-4.4-7.4-9.6-7.4
			c-5.3,0-9,2.9-9,7.8c0,1.8,0.6,3.4,1.7,4.5c0.8,0.8,1.9,1.4,3.5,1.9c5.9,1.8,10.7,1,10.7,5.4c0,3.2-2.3,5-6.4,5
			c-4.4,0-7.2-2-7.8-6.1l-3.1,0.9c0.9,5.3,4.9,7.9,10.8,7.9c5.9,0,9.6-3.1,9.6-8c0-2-0.6-3.5-1.8-4.6
			C150.2,14.1,149.3,13.5,147.6,13z"/>
		<path d="M162,1.9l-3.1,1.5v4.1h-4v2.4h4v11.4c0,4,1.8,5.8,5.6,5.8c1.4,0,2.3-0.2,3.4-0.5v-2.4c-0.7,0.2-1.6,0.3-2.6,0.3
			c-2.4,0-3.3-1-3.3-3.6v-11h5.9V7.5H162V1.9z"/>
		<path d="M179.8,7.2c-2.5,0-4.5,1.6-5.5,4.5h-0.1V7.5h-3.1v19.3h3.1v-9.6c0-4.7,1.7-7.8,4.4-7.8c1.8,0,2.8,1.2,2.8,3.7
			c0,0.7-0.1,1.9-0.3,2.8l2.9-0.4c0.2-0.9,0.3-2,0.3-2.8C184.3,9.1,182.6,7.2,179.8,7.2z"/>
		<path d="M196.1,24.7c-3.6,0-6-2.7-6.2-6.9h14.2c0-2.6-0.4-4.7-1.3-6.4c-1.3-2.7-3.8-4.3-7-4.3c-5.3,0-9,4.1-9,10.1
			c0,6.1,3.6,10.1,9.2,10.1c4,0,7-2.1,8.4-5.9l-2.6-0.9C200.7,23.3,199,24.7,196.1,24.7z M195.8,9.7c2.1,0,3.7,1.1,4.6,2.9
			c0.4,0.8,0.6,1.7,0.6,3h-11C190.4,11.9,192.5,9.7,195.8,9.7z"/>
		<path d="M216.3,24.7c-3.6,0-6-2.7-6.2-6.9h14.2c0-2.6-0.4-4.7-1.3-6.4c-1.3-2.7-3.8-4.3-7-4.3c-5.3,0-9,4.1-9,10.1
			c0,6.1,3.6,10.1,9.2,10.1c4,0,7-2.1,8.4-5.9l-2.6-0.9C220.9,23.3,219.1,24.7,216.3,24.7z M215.9,9.7c2.1,0,3.7,1.1,4.6,2.9
			c0.4,0.8,0.6,1.7,0.6,3h-11C210.6,11.9,212.7,9.7,215.9,9.7z"/>
		<path d="M238.7,10V7.5h-5.9V1.9l-3.1,1.5v4.1h-4v2.4h4v11.4c0,4,1.8,5.8,5.6,5.8c1.4,0,2.3-0.2,3.4-0.5v-2.4
			c-0.7,0.2-1.6,0.3-2.6,0.3c-2.4,0-3.3-1-3.3-3.6v-11h5.9V10z"/>
	</g>
</g>
</svg>
