<svg xmlns="http://www.w3.org/2000/svg" viewBox="0 0 146.45 146.13"><g id="Layer_2" data-name="Layer 2"><g id="Layer_4" data-name="Layer 4"><path d="M64.17,53.49A10.26,10.26,0,1,0,74.45,63.75,10.28,10.28,0,0,0,64.17,53.49Zm0,18A7.76,7.76,0,1,1,72,63.75,7.78,7.78,0,0,1,64.17,71.51Z"/><path d="M73.22,0a73,73,0,0,0-1.36,146.06l.07.07.07-.07c.41,0,.81,0,1.22,0A73.05,73.05,0,1,0,73.22,0ZM2.5,73.05A70.72,70.72,0,0,1,143.68,67.2L111.89,35.48H36.45v75.26l32.82,32.74A70.71,70.71,0,0,1,2.5,73.05ZM73.22,143.6h-.3L39,109.7V38h71.9l33,33c0,.71.06,1.41.06,2.12A70.72,70.72,0,0,1,73.22,143.6Z"/></g></g></svg>