<svg xmlns="http://www.w3.org/2000/svg" viewBox="0 0 146.5 146.5"><g id="Layer_2" data-name="Layer 2"><g id="Layer_4" data-name="Layer 4"><path d="M73.25,0A73.25,73.25,0,1,0,146.5,73.25,73.33,73.33,0,0,0,73.25,0Zm67.66,52.58H80.52V32.89L61.08,52.33Q61,28,60.75,3.63a70.63,70.63,0,0,1,80.16,48.95ZM78,38.93V68.74L63.11,53.83ZM58.26,4.11q.24,24,.32,48.15L39.21,32.89V53H5.47A71,71,0,0,1,58.26,4.11ZM56.62,53.83,41.71,68.74V38.93ZM2.5,73.25A70.8,70.8,0,0,1,4.76,55.49H39.21V74.78L58.59,55.4c.08,29.1,0,58.19-.33,87A70.86,70.86,0,0,1,2.5,73.25ZM73.25,144a70.53,70.53,0,0,1-12.5-1.13c.3-29,.42-58.25.34-87.52L80.52,74.78V55.08h61.11A70.76,70.76,0,0,1,73.25,144Z"/></g></g></svg>