<svg xmlns="http://www.w3.org/2000/svg" viewBox="0 0 144 144"><g id="Layer_2" data-name="Layer 2"><g id="Layer_4" data-name="Layer 4"><path d="M72,144a72,72,0,1,1,72-72A72.08,72.08,0,0,1,72,144ZM72,2.46A69.54,69.54,0,1,0,141.54,72,69.61,69.61,0,0,0,72,2.46Z"/><polygon points="71.72 116.8 36.63 81.71 38.36 79.97 71.72 113.33 105.37 79.68 107.1 81.41 71.72 116.8"/><path d="M36.62,81.83A25.78,25.78,0,1,1,72.78,45.2L71,46.85A23.32,23.32,0,1,0,38.25,80Z"/><path d="M106.69,81.83,105.06,80A23.32,23.32,0,1,0,72.35,46.85L70.53,45.2a25.78,25.78,0,1,1,36.16,36.63Z"/></g></g></svg>