<svg xmlns="http://www.w3.org/2000/svg" viewBox="0 0 146.03 146.5"><defs><style>.cls-1{fill:#425030;}</style></defs><g id="Layer_2" data-name="Layer 2"><g id="Layer_4" data-name="Layer 4"><path class="cls-1" d="M73,0a73.25,73.25,0,1,0,73,73.25A73.21,73.21,0,0,0,73,0ZM2.53,74.5h141A70.37,70.37,0,0,1,134.4,108H11.63A70.38,70.38,0,0,1,2.53,74.5Zm0-2.5a70.38,70.38,0,0,1,9.1-33.5H134.4A70.37,70.37,0,0,1,143.49,72ZM73,2.5A70.49,70.49,0,0,1,132.93,36H13.1A70.47,70.47,0,0,1,73,2.5ZM73,144A70.47,70.47,0,0,1,13.1,110.5H132.93A70.49,70.49,0,0,1,73,144Z"/></g></g></svg>