<svg xmlns="http://www.w3.org/2000/svg" viewBox="0 0 146.5 146.5"><defs><style>.cls-1{fill:#425030;}</style></defs><g id="Layer_2" data-name="Layer 2"><g id="Layer_4" data-name="Layer 4"><path class="cls-1" d="M73.25,0A73.25,73.25,0,1,0,146.5,73.25,73.33,73.33,0,0,0,73.25,0Zm0,144A70.75,70.75,0,1,1,144,73.25,70.83,70.83,0,0,1,73.25,144Z"/><path class="cls-1" d="M73,17.49A55.47,55.47,0,1,0,128.48,73,55.53,55.53,0,0,0,73,17.49Zm0,108.44a53,53,0,1,1,53-53A53,53,0,0,1,73,125.93Z"/><path class="cls-1" d="M72.9,35.56a37.19,37.19,0,1,0,37.51,37.19A37.4,37.4,0,0,0,72.9,35.56Zm0,71.88a34.69,34.69,0,1,1,35-34.69A34.89,34.89,0,0,1,72.9,107.44Z"/><path class="cls-1" d="M72.91,53.85A19.06,19.06,0,1,0,92.12,72.91,19.16,19.16,0,0,0,72.91,53.85Zm0,35.61A16.56,16.56,0,1,1,89.62,72.91,16.65,16.65,0,0,1,72.91,89.46Z"/></g></g></svg>