<svg xmlns="http://www.w3.org/2000/svg" viewBox="0 0 146.5 146.5"><defs><style>.cls-1{fill:#425030;}</style></defs><g id="Layer_2" data-name="Layer 2"><g id="Layer_4" data-name="Layer 4"><path class="cls-1" d="M73.25,0A73.19,73.19,0,0,0,17.67,120.88v.06h0A73.23,73.23,0,1,0,73.25,0ZM2.5,73.25a70.75,70.75,0,1,1,126,44.14V72.25H110a37.31,37.31,0,0,0-74.6,0H17.67v44.69A70.35,70.35,0,0,1,2.5,73.25Zm105-1H37.94a34.81,34.81,0,0,1,69.6,0ZM73.25,144a70.57,70.57,0,0,1-53.08-24V74.75H126v45.6A70.56,70.56,0,0,1,73.25,144Z"/></g></g></svg>