<svg xmlns="http://www.w3.org/2000/svg" viewBox="0 0 146.5 146.5"><g id="Layer_2" data-name="Layer 2"><g id="Layer_4" data-name="Layer 4"><path d="M73.25,0A73.25,73.25,0,1,0,146.5,73.25,73.33,73.33,0,0,0,73.25,0Zm0,144A70.75,70.75,0,1,1,144,73.25,70.83,70.83,0,0,1,73.25,144Z"/><path d="M91.76,84.26a50.89,50.89,0,0,0-4.24-9.16A57.08,57.08,0,0,0,81.82,67l-1.55-1.75c-.31-.33-.64-.73-1-1.12-.78-1-1.39-1.78-1.92-2.57a35.25,35.25,0,0,1-3.13-5.42A21.5,21.5,0,0,1,72,45.35c.22-3.52,1.77-7.5,4.52-11.55a56.86,56.86,0,0,1,4.29-5.59l.32-.38c.6-.63,1.19-1.29,1.79-1.95l1-1.07.36-.36c.85-.88,1.74-1.79,2.61-2.77l.57-.65L85.7,17.68l-.9.17a43,43,0,0,0-17.07,7,34.41,34.41,0,0,0-7.43,6.9,29.91,29.91,0,0,0-5.24,9.67,31.89,31.89,0,0,0-1.53,11.24A37.94,37.94,0,0,0,55.6,63.42a45.69,45.69,0,0,0,4.52,9.4,51,51,0,0,0,3,4.21c.43.55,1,1.28,1.72,2.06l.73.8h0l.48.55a52.77,52.77,0,0,1,7.32,11.13c1.92,4.06,2.75,7.59,2.55,10.81a14.51,14.51,0,0,1-1.28,5.18l-.06.14a3.78,3.78,0,0,1-.35.7c-.1.18-.2.35-.27.5l-.16.3a7.68,7.68,0,0,1-.63,1l-.91,1.39-.08.09c-.35.42-.7.84-1,1.28l-.53.68-.59.63c-.45.46-.89.93-1.28,1.37s-1,1-1.57,1.48l-1.25,1.17c-.57.46-1.13.94-1.7,1.43s-.92.79-1.37,1.16l-.16.12c-1,.81-2.12,1.65-3.2,2.57l-.66.56,1.34,3.58.93-.07c1.49-.1,3-.29,4.52-.5,1.27-.24,2.64-.54,4.49-1,1.59-.48,3-1,4.45-1.52.72-.3,1.44-.64,2.16-1l1.07-.51,1.12-.63c.69-.4,1.37-.82,2.11-1.27l2-1.53A15.82,15.82,0,0,0,85.1,118l.51-.49A14.73,14.73,0,0,0,87,116a26.81,26.81,0,0,0,5.6-9.87,31.12,31.12,0,0,0,1.35-11.38A39.93,39.93,0,0,0,91.76,84.26ZM90.2,105.39a24.32,24.32,0,0,1-5.09,9l-.07.08a10.16,10.16,0,0,1-1.16,1.22c-.18.18-.37.35-.54.53a15.57,15.57,0,0,1-1.78,1.55l-2,1.46c-.66.4-1.31.8-2,1.18l-1,.57-1,.48c-.69.33-1.39.65-2,.93-1.32.5-2.71,1-4.17,1.42-1.74.42-3.06.71-4.22.93s-2.27.3-3.38.4l-.06-.16c.81-.68,1.63-1.31,2.44-1.94l.18-.14c.49-.4,1-.81,1.44-1.21s1.12-1,1.68-1.41l.09-.08c.41-.4.83-.79,1.25-1.17s1.1-1,1.68-1.6c.42-.47.84-.92,1.27-1.37l.65-.67.65-.83c.32-.42.66-.82,1-1.21l1.12-1.65a9.3,9.3,0,0,0,.78-1.3l.17-.32c.08-.14.16-.28.23-.42a5.73,5.73,0,0,0,.54-1.11,16.86,16.86,0,0,0,1.48-6c.22-3.64-.69-7.58-2.79-12a55.54,55.54,0,0,0-7.69-11.7l-.52-.59h0l-.72-.79c-.51-.57-1-1.16-1.62-2a45.45,45.45,0,0,1-2.79-4A42.62,42.62,0,0,1,58,62.62a35.13,35.13,0,0,1-1.94-10,29.46,29.46,0,0,1,1.4-10.36,27.46,27.46,0,0,1,4.8-8.86,32.1,32.1,0,0,1,6.91-6.43,40.49,40.49,0,0,1,15.21-6.44l.1.18c-.65.71-1.31,1.38-2,2l-.39.39-1,1.11c-.58.65-1.17,1.29-1.81,2l-.36.44a57.19,57.19,0,0,0-4.47,5.81c-3,4.39-4.68,8.81-4.92,12.76a23.85,23.85,0,0,0,2.46,12A39.09,39.09,0,0,0,75.33,63c.57.83,1.21,1.7,2,2.73.35.44.72.88,1.06,1.24l1.49,1.68a54.64,54.64,0,0,1,5.44,7.75,49.11,49.11,0,0,1,4,8.72,37.52,37.52,0,0,1,2,9.86A28.72,28.72,0,0,1,90.2,105.39Z"/></g></g></svg>