<svg xmlns="http://www.w3.org/2000/svg" viewBox="0 0 146.5 146.5"><defs><style>.cls-1{fill:#425030;}</style></defs><g id="Layer_2" data-name="Layer 2"><g id="Layer_1-2" data-name="Layer 1"><path class="cls-1" d="M73.25,146.5A73.25,73.25,0,1,1,146.5,73.25,73.33,73.33,0,0,1,73.25,146.5Zm0-144A70.75,70.75,0,1,0,144,73.25,70.83,70.83,0,0,0,73.25,2.5ZM55.1,129.62a25.26,25.26,0,0,1-21.78-38L47.24,67.74h0l22.3-38.3a25.25,25.25,0,1,1,43.64,25.4L77,117.06a25.06,25.06,0,0,1-15.37,11.71A25.32,25.32,0,0,1,55.1,129.62ZM49.4,69,35.48,92.92A22.75,22.75,0,0,0,74.8,115.8L88.72,91.89Zm1.26-2.16L90,89.73l21-36.15A22.75,22.75,0,0,0,71.7,30.7Z"/></g></g></svg>