<svg xmlns="http://www.w3.org/2000/svg" xmlns:xlink="http://www.w3.org/1999/xlink" viewBox="0 0 3169.5 1315.5"><defs><style>.cls-1{fill:#425031;}.cls-2{clip-path:url(#clip-path);}.cls-3{fill:none;stroke:#fff;stroke-miterlimit:10;stroke-width:1.5px;}</style><clipPath id="clip-path"><rect class="cls-1" x="882.75" y="306.75" width="1440" height="810"/></clipPath></defs><g id="Isolation_Mode" data-name="Isolation Mode"><rect class="cls-1" x="882.75" y="306.75" width="1440" height="810"/><g class="cls-2"><circle class="cls-3" cx="900.75" cy="198.75" r="36"/><path class="cls-3" d="M936.75,306.75a36,36,0,0,1-72,0"/><path class="cls-3" d="M936.75,360.75a36,36,0,0,1-72,0"/><path class="cls-3" d="M936.75,414.75a36,36,0,0,1-72,0"/><path class="cls-3" d="M936.75,414.75a36,36,0,0,1-72,0"/><path class="cls-3" d="M936.75,198.75v216a36,36,0,0,1-72,0v-216"/><circle class="cls-3" cx="972.75" cy="468.75" r="36"/><path class="cls-3" d="M936.75,360.75a36,36,0,0,1,72,0"/><path class="cls-3" d="M936.75,306.75a36,36,0,0,1,72,0"/><path class="cls-3" d="M936.75,252.75a36,36,0,0,1,72,0"/><path class="cls-3" d="M936.75,252.75a36,36,0,0,1,72,0"/><path class="cls-3" d="M936.75,468.75v-216a36,36,0,0,1,72,0v216"/><circle class="cls-3" cx="756.75" cy="36.75" r="36"/><path class="cls-3" d="M792.75,144.75a36,36,0,0,1-72,0"/><path class="cls-3" d="M792.75,198.75a36,36,0,0,1-72,0"/><path class="cls-3" d="M792.75,252.75a36,36,0,0,1-72,0"/><path class="cls-3" d="M792.75,252.75a36,36,0,0,1-72,0"/><path class="cls-3" d="M792.75,36.75v216a36,36,0,0,1-72,0v-216"/><circle class="cls-3" cx="828.75" cy="306.75" r="36"/><path class="cls-3" d="M792.75,198.75a36,36,0,0,1,72,0"/><path class="cls-3" d="M792.75,144.75a36,36,0,0,1,72,0"/><path class="cls-3" d="M792.75,90.75a36,36,0,0,1,72,0"/><path class="cls-3" d="M792.75,90.75a36,36,0,0,1,72,0"/><path class="cls-3" d="M792.75,306.75v-216a36,36,0,0,1,72,0v216"/><circle class="cls-3" cx="1044.75" cy="360.75" r="36"/><path class="cls-3" d="M1080.75,468.75a36,36,0,0,1-72,0"/><path class="cls-3" d="M1080.75,522.75a36,36,0,0,1-72,0"/><path class="cls-3" d="M1080.75,576.75a36,36,0,0,1-72,0"/><path class="cls-3" d="M1080.75,576.75a36,36,0,0,1-72,0"/><path class="cls-3" d="M1080.75,360.75v216a36,36,0,0,1-72,0v-216"/><circle class="cls-3" cx="1116.75" cy="630.75" r="36"/><path class="cls-3" d="M1080.75,522.75a36,36,0,0,1,72,0"/><path class="cls-3" d="M1080.75,468.75a36,36,0,0,1,72,0"/><path class="cls-3" d="M1080.75,414.75a36,36,0,0,1,72,0"/><path class="cls-3" d="M1080.75,414.75a36,36,0,0,1,72,0"/><path class="cls-3" d="M1080.75,630.75v-216a36,36,0,0,1,72,0v216"/><circle class="cls-3" cx="1188.75" cy="522.75" r="36"/><path class="cls-3" d="M1224.75,630.75a36,36,0,0,1-72,0"/><path class="cls-3" d="M1224.75,684.75a36,36,0,0,1-72,0"/><path class="cls-3" d="M1224.75,738.75a36,36,0,0,1-72,0"/><path class="cls-3" d="M1224.75,738.75a36,36,0,0,1-72,0"/><path class="cls-3" d="M1224.75,522.75v216a36,36,0,0,1-72,0v-216"/><circle class="cls-3" cx="1260.75" cy="792.75" r="36"/><path class="cls-3" d="M1224.75,684.75a36,36,0,0,1,72,0"/><path class="cls-3" d="M1224.75,630.75a36,36,0,0,1,72,0"/><path class="cls-3" d="M1224.75,576.75a36,36,0,0,1,72,0"/><path class="cls-3" d="M1224.75,576.75a36,36,0,0,1,72,0"/><path class="cls-3" d="M1224.75,792.75v-216a36,36,0,0,1,72,0v216"/><circle class="cls-3" cx="1332.75" cy="684.75" r="36"/><path class="cls-3" d="M1368.75,792.75a36,36,0,0,1-72,0"/><path class="cls-3" d="M1368.75,846.75a36,36,0,0,1-72,0"/><path class="cls-3" d="M1368.75,900.75a36,36,0,0,1-72,0"/><path class="cls-3" d="M1368.75,900.75a36,36,0,0,1-72,0"/><path class="cls-3" d="M1368.75,684.75v216a36,36,0,0,1-72,0v-216"/><circle class="cls-3" cx="1404.75" cy="954.75" r="36"/><path class="cls-3" d="M1368.75,846.75a36,36,0,0,1,72,0"/><path class="cls-3" d="M1368.75,792.75a36,36,0,0,1,72,0"/><path class="cls-3" d="M1368.75,738.75a36,36,0,0,1,72,0"/><path class="cls-3" d="M1368.75,738.75a36,36,0,0,1,72,0"/><path class="cls-3" d="M1368.75,954.75v-216a36,36,0,0,1,72,0v216"/><circle class="cls-3" cx="1476.75" cy="846.75" r="36"/><path class="cls-3" d="M1512.75,954.75a36,36,0,0,1-72,0"/><path class="cls-3" d="M1512.75,1008.75a36,36,0,0,1-72,0"/><path class="cls-3" d="M1512.75,1062.75a36,36,0,0,1-72,0"/><path class="cls-3" d="M1512.75,1062.75a36,36,0,0,1-72,0"/><path class="cls-3" d="M1512.75,846.75v216a36,36,0,0,1-72,0v-216"/><circle class="cls-3" cx="1548.75" cy="1116.75" r="36"/><path class="cls-3" d="M1512.75,1008.75a36,36,0,0,1,72,0"/><path class="cls-3" d="M1512.75,954.75a36,36,0,0,1,72,0"/><path class="cls-3" d="M1512.75,900.75a36,36,0,0,1,72,0"/><path class="cls-3" d="M1512.75,900.75a36,36,0,0,1,72,0"/><path class="cls-3" d="M1512.75,1116.75v-216a36,36,0,0,1,72,0v216"/><circle class="cls-3" cx="1620.75" cy="1008.75" r="36"/><path class="cls-3" d="M1656.75,1116.75a36,36,0,0,1-72,0"/><path class="cls-3" d="M1656.75,1170.75a36,36,0,0,1-72,0"/><path class="cls-3" d="M1656.75,1224.75a36,36,0,0,1-72,0"/><path class="cls-3" d="M1656.75,1224.75a36,36,0,0,1-72,0"/><path class="cls-3" d="M1656.75,1008.75v216a36,36,0,0,1-72,0v-216"/><circle class="cls-3" cx="1692.75" cy="1278.75" r="36"/><path class="cls-3" d="M1656.75,1170.75a36,36,0,0,1,72,0"/><path class="cls-3" d="M1656.75,1116.75a36,36,0,0,1,72,0"/><path class="cls-3" d="M1656.75,1062.75a36,36,0,0,1,72,0"/><path class="cls-3" d="M1656.75,1062.75a36,36,0,0,1,72,0"/><path class="cls-3" d="M1656.75,1278.75v-216a36,36,0,0,1,72,0v216"/><circle class="cls-3" cx="540.75" cy="198.75" r="36"/><path class="cls-3" d="M576.75,306.75a36,36,0,0,1-72,0"/><path class="cls-3" d="M576.75,360.75a36,36,0,0,1-72,0"/><path class="cls-3" d="M576.75,414.75a36,36,0,0,1-72,0"/><path class="cls-3" d="M576.75,414.75a36,36,0,0,1-72,0"/><path class="cls-3" d="M576.75,198.75v216a36,36,0,0,1-72,0v-216"/><circle class="cls-3" cx="612.75" cy="468.75" r="36"/><path class="cls-3" d="M576.75,360.75a36,36,0,0,1,72,0"/><path class="cls-3" d="M576.75,306.75a36,36,0,0,1,72,0"/><path class="cls-3" d="M576.75,252.75a36,36,0,0,1,72,0"/><path class="cls-3" d="M576.75,252.75a36,36,0,0,1,72,0"/><path class="cls-3" d="M576.75,468.75v-216a36,36,0,0,1,72,0v216"/><circle class="cls-3" cx="396.75" cy="36.75" r="36"/><path class="cls-3" d="M432.75,144.75a36,36,0,0,1-72,0"/><path class="cls-3" d="M432.75,198.75a36,36,0,0,1-72,0"/><path class="cls-3" d="M432.75,252.75a36,36,0,0,1-72,0"/><path class="cls-3" d="M432.75,252.75a36,36,0,0,1-72,0"/><path class="cls-3" d="M432.75,36.75v216a36,36,0,0,1-72,0v-216"/><circle class="cls-3" cx="468.75" cy="306.75" r="36"/><path class="cls-3" d="M432.75,198.75a36,36,0,0,1,72,0"/><path class="cls-3" d="M432.75,144.75a36,36,0,0,1,72,0"/><path class="cls-3" d="M432.75,90.75a36,36,0,0,1,72,0"/><path class="cls-3" d="M432.75,90.75a36,36,0,0,1,72,0"/><path class="cls-3" d="M432.75,306.75v-216a36,36,0,0,1,72,0v216"/><circle class="cls-3" cx="684.75" cy="360.75" r="36"/><path class="cls-3" d="M720.75,468.75a36,36,0,0,1-72,0"/><path class="cls-3" d="M720.75,522.75a36,36,0,0,1-72,0"/><path class="cls-3" d="M720.75,576.75a36,36,0,0,1-72,0"/><path class="cls-3" d="M720.75,576.75a36,36,0,0,1-72,0"/><path class="cls-3" d="M720.75,360.75v216a36,36,0,0,1-72,0v-216"/><circle class="cls-3" cx="756.75" cy="630.75" r="36"/><path class="cls-3" d="M720.75,522.75a36,36,0,0,1,72,0"/><path class="cls-3" d="M720.75,468.75a36,36,0,0,1,72,0"/><path class="cls-3" d="M720.75,414.75a36,36,0,0,1,72,0"/><path class="cls-3" d="M720.75,414.75a36,36,0,0,1,72,0"/><path class="cls-3" d="M720.75,630.75v-216a36,36,0,0,1,72,0v216"/><circle class="cls-3" cx="828.75" cy="522.75" r="36"/><path class="cls-3" d="M864.75,630.75a36,36,0,0,1-72,0"/><path class="cls-3" d="M864.75,684.75a36,36,0,0,1-72,0"/><path class="cls-3" d="M864.75,738.75a36,36,0,0,1-72,0"/><path class="cls-3" d="M864.75,738.75a36,36,0,0,1-72,0"/><path class="cls-3" d="M864.75,522.75v216a36,36,0,0,1-72,0v-216"/><circle class="cls-3" cx="900.75" cy="792.75" r="36"/><path class="cls-3" d="M864.75,684.75a36,36,0,0,1,72,0"/><path class="cls-3" d="M864.75,630.75a36,36,0,0,1,72,0"/><path class="cls-3" d="M864.75,576.75a36,36,0,0,1,72,0"/><path class="cls-3" d="M864.75,576.75a36,36,0,0,1,72,0"/><path class="cls-3" d="M864.75,792.75v-216a36,36,0,0,1,72,0v216"/><circle class="cls-3" cx="972.75" cy="684.75" r="36"/><path class="cls-3" d="M1008.75,792.75a36,36,0,0,1-72,0"/><path class="cls-3" d="M1008.75,846.75a36,36,0,0,1-72,0"/><path class="cls-3" d="M1008.75,900.75a36,36,0,0,1-72,0"/><path class="cls-3" d="M1008.75,900.75a36,36,0,0,1-72,0"/><path class="cls-3" d="M1008.75,684.75v216a36,36,0,0,1-72,0v-216"/><circle class="cls-3" cx="1044.75" cy="954.75" r="36"/><path class="cls-3" d="M1008.75,846.75a36,36,0,0,1,72,0"/><path class="cls-3" d="M1008.75,792.75a36,36,0,0,1,72,0"/><path class="cls-3" d="M1008.75,738.75a36,36,0,0,1,72,0"/><path class="cls-3" d="M1008.75,738.75a36,36,0,0,1,72,0"/><path class="cls-3" d="M1008.75,954.75v-216a36,36,0,0,1,72,0v216"/><circle class="cls-3" cx="1116.75" cy="846.75" r="36"/><path class="cls-3" d="M1152.75,954.75a36,36,0,0,1-72,0"/><path class="cls-3" d="M1152.75,1008.75a36,36,0,0,1-72,0"/><path class="cls-3" d="M1152.75,1062.75a36,36,0,0,1-72,0"/><path class="cls-3" d="M1152.75,1062.75a36,36,0,0,1-72,0"/><path class="cls-3" d="M1152.75,846.75v216a36,36,0,0,1-72,0v-216"/><circle class="cls-3" cx="1188.75" cy="1116.75" r="36"/><path class="cls-3" d="M1152.75,1008.75a36,36,0,0,1,72,0"/><path class="cls-3" d="M1152.75,954.75a36,36,0,0,1,72,0"/><path class="cls-3" d="M1152.75,900.75a36,36,0,0,1,72,0"/><path class="cls-3" d="M1152.75,900.75a36,36,0,0,1,72,0"/><path class="cls-3" d="M1152.75,1116.75v-216a36,36,0,0,1,72,0v216"/><circle class="cls-3" cx="1260.75" cy="1008.75" r="36"/><path class="cls-3" d="M1296.75,1116.75a36,36,0,0,1-72,0"/><path class="cls-3" d="M1296.75,1170.75a36,36,0,0,1-72,0"/><path class="cls-3" d="M1296.75,1224.75a36,36,0,0,1-72,0"/><path class="cls-3" d="M1296.75,1224.75a36,36,0,0,1-72,0"/><path class="cls-3" d="M1296.75,1008.75v216a36,36,0,0,1-72,0v-216"/><circle class="cls-3" cx="1332.75" cy="1278.75" r="36"/><path class="cls-3" d="M1296.75,1170.75a36,36,0,0,1,72,0"/><path class="cls-3" d="M1296.75,1116.75a36,36,0,0,1,72,0"/><path class="cls-3" d="M1296.75,1062.75a36,36,0,0,1,72,0"/><path class="cls-3" d="M1296.75,1062.75a36,36,0,0,1,72,0"/><path class="cls-3" d="M1296.75,1278.75v-216a36,36,0,0,1,72,0v216"/><circle class="cls-3" cx="180.75" cy="198.75" r="36"/><path class="cls-3" d="M216.75,306.75a36,36,0,0,1-72,0"/><path class="cls-3" d="M216.75,360.75a36,36,0,0,1-72,0"/><path class="cls-3" d="M216.75,414.75a36,36,0,0,1-72,0"/><path class="cls-3" d="M216.75,414.75a36,36,0,0,1-72,0"/><path class="cls-3" d="M216.75,198.75v216a36,36,0,0,1-72,0v-216"/><circle class="cls-3" cx="252.75" cy="468.75" r="36"/><path class="cls-3" d="M216.75,360.75a36,36,0,0,1,72,0"/><path class="cls-3" d="M216.75,306.75a36,36,0,0,1,72,0"/><path class="cls-3" d="M216.75,252.75a36,36,0,0,1,72,0"/><path class="cls-3" d="M216.75,252.75a36,36,0,0,1,72,0"/><path class="cls-3" d="M216.75,468.75v-216a36,36,0,0,1,72,0v216"/><circle class="cls-3" cx="36.75" cy="36.75" r="36"/><path class="cls-3" d="M72.75,144.75a36,36,0,0,1-72,0"/><path class="cls-3" d="M72.75,198.75a36,36,0,0,1-72,0"/><path class="cls-3" d="M72.75,252.75a36,36,0,0,1-72,0"/><path class="cls-3" d="M72.75,252.75a36,36,0,0,1-72,0"/><path class="cls-3" d="M72.75,36.75v216a36,36,0,0,1-72,0v-216"/><circle class="cls-3" cx="108.75" cy="306.75" r="36"/><path class="cls-3" d="M72.75,198.75a36,36,0,0,1,72,0"/><path class="cls-3" d="M72.75,144.75a36,36,0,0,1,72,0"/><path class="cls-3" d="M72.75,90.75a36,36,0,0,1,72,0"/><path class="cls-3" d="M72.75,90.75a36,36,0,0,1,72,0"/><path class="cls-3" d="M72.75,306.75v-216a36,36,0,0,1,72,0v216"/><circle class="cls-3" cx="324.75" cy="360.75" r="36"/><path class="cls-3" d="M360.75,468.75a36,36,0,0,1-72,0"/><path class="cls-3" d="M360.75,522.75a36,36,0,0,1-72,0"/><path class="cls-3" d="M360.75,576.75a36,36,0,0,1-72,0"/><path class="cls-3" d="M360.75,576.75a36,36,0,0,1-72,0"/><path class="cls-3" d="M360.75,360.75v216a36,36,0,0,1-72,0v-216"/><circle class="cls-3" cx="396.75" cy="630.75" r="36"/><path class="cls-3" d="M360.75,522.75a36,36,0,0,1,72,0"/><path class="cls-3" d="M360.75,468.75a36,36,0,0,1,72,0"/><path class="cls-3" d="M360.75,414.75a36,36,0,0,1,72,0"/><path class="cls-3" d="M360.75,414.75a36,36,0,0,1,72,0"/><path class="cls-3" d="M360.75,630.75v-216a36,36,0,0,1,72,0v216"/><circle class="cls-3" cx="468.75" cy="522.75" r="36"/><path class="cls-3" d="M504.75,630.75a36,36,0,0,1-72,0"/><path class="cls-3" d="M504.75,684.75a36,36,0,0,1-72,0"/><path class="cls-3" d="M504.75,738.75a36,36,0,0,1-72,0"/><path class="cls-3" d="M504.75,738.75a36,36,0,0,1-72,0"/><path class="cls-3" d="M504.75,522.75v216a36,36,0,0,1-72,0v-216"/><circle class="cls-3" cx="540.75" cy="792.75" r="36"/><path class="cls-3" d="M504.75,684.75a36,36,0,0,1,72,0"/><path class="cls-3" d="M504.75,630.75a36,36,0,0,1,72,0"/><path class="cls-3" d="M504.75,576.75a36,36,0,0,1,72,0"/><path class="cls-3" d="M504.75,576.75a36,36,0,0,1,72,0"/><path class="cls-3" d="M504.75,792.75v-216a36,36,0,0,1,72,0v216"/><circle class="cls-3" cx="612.75" cy="684.75" r="36"/><path class="cls-3" d="M648.75,792.75a36,36,0,0,1-72,0"/><path class="cls-3" d="M648.75,846.75a36,36,0,0,1-72,0"/><path class="cls-3" d="M648.75,900.75a36,36,0,0,1-72,0"/><path class="cls-3" d="M648.75,900.75a36,36,0,0,1-72,0"/><path class="cls-3" d="M648.75,684.75v216a36,36,0,0,1-72,0v-216"/><circle class="cls-3" cx="684.75" cy="954.75" r="36"/><path class="cls-3" d="M648.75,846.75a36,36,0,0,1,72,0"/><path class="cls-3" d="M648.75,792.75a36,36,0,0,1,72,0"/><path class="cls-3" d="M648.75,738.75a36,36,0,0,1,72,0"/><path class="cls-3" d="M648.75,738.75a36,36,0,0,1,72,0"/><path class="cls-3" d="M648.75,954.75v-216a36,36,0,0,1,72,0v216"/><circle class="cls-3" cx="756.75" cy="846.75" r="36"/><path class="cls-3" d="M792.75,954.75a36,36,0,0,1-72,0"/><path class="cls-3" d="M792.75,1008.75a36,36,0,0,1-72,0"/><path class="cls-3" d="M792.75,1062.75a36,36,0,0,1-72,0"/><path class="cls-3" d="M792.75,1062.75a36,36,0,0,1-72,0"/><path class="cls-3" d="M792.75,846.75v216a36,36,0,0,1-72,0v-216"/><circle class="cls-3" cx="828.75" cy="1116.75" r="36"/><path class="cls-3" d="M792.75,1008.75a36,36,0,0,1,72,0"/><path class="cls-3" d="M792.75,954.75a36,36,0,0,1,72,0"/><path class="cls-3" d="M792.75,900.75a36,36,0,0,1,72,0"/><path class="cls-3" d="M792.75,900.75a36,36,0,0,1,72,0"/><path class="cls-3" d="M792.75,1116.75v-216a36,36,0,0,1,72,0v216"/><circle class="cls-3" cx="900.75" cy="1008.75" r="36"/><path class="cls-3" d="M936.75,1116.75a36,36,0,0,1-72,0"/><path class="cls-3" d="M936.75,1170.75a36,36,0,0,1-72,0"/><path class="cls-3" d="M936.75,1224.75a36,36,0,0,1-72,0"/><path class="cls-3" d="M936.75,1224.75a36,36,0,0,1-72,0"/><path class="cls-3" d="M936.75,1008.75v216a36,36,0,0,1-72,0v-216"/><circle class="cls-3" cx="972.75" cy="1278.75" r="36"/><path class="cls-3" d="M936.75,1170.75a36,36,0,0,1,72,0"/><path class="cls-3" d="M936.75,1116.75a36,36,0,0,1,72,0"/><path class="cls-3" d="M936.75,1062.75a36,36,0,0,1,72,0"/><path class="cls-3" d="M936.75,1062.75a36,36,0,0,1,72,0"/><path class="cls-3" d="M936.75,1278.75v-216a36,36,0,0,1,72,0v216"/><circle class="cls-3" cx="1260.75" cy="198.75" r="36"/><path class="cls-3" d="M1296.75,306.75a36,36,0,0,1-72,0"/><path class="cls-3" d="M1296.75,360.75a36,36,0,0,1-72,0"/><path class="cls-3" d="M1296.75,414.75a36,36,0,0,1-72,0"/><path class="cls-3" d="M1296.75,414.75a36,36,0,0,1-72,0"/><path class="cls-3" d="M1296.75,198.75v216a36,36,0,0,1-72,0v-216"/><circle class="cls-3" cx="1332.75" cy="468.75" r="36"/><path class="cls-3" d="M1296.75,360.75a36,36,0,0,1,72,0"/><path class="cls-3" d="M1296.75,306.75a36,36,0,0,1,72,0"/><path class="cls-3" d="M1296.75,252.75a36,36,0,0,1,72,0"/><path class="cls-3" d="M1296.75,252.75a36,36,0,0,1,72,0"/><path class="cls-3" d="M1296.75,468.75v-216a36,36,0,0,1,72,0v216"/><circle class="cls-3" cx="1116.75" cy="36.75" r="36"/><path class="cls-3" d="M1152.75,144.75a36,36,0,0,1-72,0"/><path class="cls-3" d="M1152.75,198.75a36,36,0,0,1-72,0"/><path class="cls-3" d="M1152.75,252.75a36,36,0,0,1-72,0"/><path class="cls-3" d="M1152.75,252.75a36,36,0,0,1-72,0"/><path class="cls-3" d="M1152.75,36.75v216a36,36,0,0,1-72,0v-216"/><circle class="cls-3" cx="1188.75" cy="306.75" r="36"/><path class="cls-3" d="M1152.75,198.75a36,36,0,0,1,72,0"/><path class="cls-3" d="M1152.75,144.75a36,36,0,0,1,72,0"/><path class="cls-3" d="M1152.75,90.75a36,36,0,0,1,72,0"/><path class="cls-3" d="M1152.75,90.75a36,36,0,0,1,72,0"/><path class="cls-3" d="M1152.75,306.75v-216a36,36,0,0,1,72,0v216"/><circle class="cls-3" cx="1404.75" cy="360.75" r="36"/><path class="cls-3" d="M1440.75,468.75a36,36,0,0,1-72,0"/><path class="cls-3" d="M1440.75,522.75a36,36,0,0,1-72,0"/><path class="cls-3" d="M1440.75,576.75a36,36,0,0,1-72,0"/><path class="cls-3" d="M1440.75,576.75a36,36,0,0,1-72,0"/><path class="cls-3" d="M1440.75,360.75v216a36,36,0,0,1-72,0v-216"/><circle class="cls-3" cx="1476.75" cy="630.75" r="36"/><path class="cls-3" d="M1440.75,522.75a36,36,0,0,1,72,0"/><path class="cls-3" d="M1440.75,468.75a36,36,0,0,1,72,0"/><path class="cls-3" d="M1440.75,414.75a36,36,0,0,1,72,0"/><path class="cls-3" d="M1440.75,414.75a36,36,0,0,1,72,0"/><path class="cls-3" d="M1440.75,630.75v-216a36,36,0,0,1,72,0v216"/><circle class="cls-3" cx="1548.75" cy="522.75" r="36"/><path class="cls-3" d="M1584.75,630.75a36,36,0,0,1-72,0"/><path class="cls-3" d="M1584.75,684.75a36,36,0,0,1-72,0"/><path class="cls-3" d="M1584.75,738.75a36,36,0,0,1-72,0"/><path class="cls-3" d="M1584.75,738.75a36,36,0,0,1-72,0"/><path class="cls-3" d="M1584.75,522.75v216a36,36,0,0,1-72,0v-216"/><circle class="cls-3" cx="1620.75" cy="792.75" r="36"/><path class="cls-3" d="M1584.75,684.75a36,36,0,0,1,72,0"/><path class="cls-3" d="M1584.75,630.75a36,36,0,0,1,72,0"/><path class="cls-3" d="M1584.75,576.75a36,36,0,0,1,72,0"/><path class="cls-3" d="M1584.75,576.75a36,36,0,0,1,72,0"/><path class="cls-3" d="M1584.75,792.75v-216a36,36,0,0,1,72,0v216"/><circle class="cls-3" cx="1692.75" cy="684.75" r="36"/><path class="cls-3" d="M1728.75,792.75a36,36,0,0,1-72,0"/><path class="cls-3" d="M1728.75,846.75a36,36,0,0,1-72,0"/><path class="cls-3" d="M1728.75,900.75a36,36,0,0,1-72,0"/><path class="cls-3" d="M1728.75,900.75a36,36,0,0,1-72,0"/><path class="cls-3" d="M1728.75,684.75v216a36,36,0,0,1-72,0v-216"/><circle class="cls-3" cx="1764.75" cy="954.75" r="36"/><path class="cls-3" d="M1728.75,846.75a36,36,0,0,1,72,0"/><path class="cls-3" d="M1728.75,792.75a36,36,0,0,1,72,0"/><path class="cls-3" d="M1728.75,738.75a36,36,0,0,1,72,0"/><path class="cls-3" d="M1728.75,738.75a36,36,0,0,1,72,0"/><path class="cls-3" d="M1728.75,954.75v-216a36,36,0,0,1,72,0v216"/><circle class="cls-3" cx="1836.75" cy="846.75" r="36"/><path class="cls-3" d="M1872.75,954.75a36,36,0,0,1-72,0"/><path class="cls-3" d="M1872.75,1008.75a36,36,0,0,1-72,0"/><path class="cls-3" d="M1872.75,1062.75a36,36,0,0,1-72,0"/><path class="cls-3" d="M1872.75,1062.75a36,36,0,0,1-72,0"/><path class="cls-3" d="M1872.75,846.75v216a36,36,0,0,1-72,0v-216"/><circle class="cls-3" cx="1908.75" cy="1116.75" r="36"/><path class="cls-3" d="M1872.75,1008.75a36,36,0,0,1,72,0"/><path class="cls-3" d="M1872.75,954.75a36,36,0,0,1,72,0"/><path class="cls-3" d="M1872.75,900.75a36,36,0,0,1,72,0"/><path class="cls-3" d="M1872.75,900.75a36,36,0,0,1,72,0"/><path class="cls-3" d="M1872.75,1116.75v-216a36,36,0,0,1,72,0v216"/><circle class="cls-3" cx="1980.75" cy="1008.75" r="36"/><path class="cls-3" d="M2016.75,1116.75a36,36,0,0,1-72,0"/><path class="cls-3" d="M2016.75,1170.75a36,36,0,0,1-72,0"/><path class="cls-3" d="M2016.75,1224.75a36,36,0,0,1-72,0"/><path class="cls-3" d="M2016.75,1224.75a36,36,0,0,1-72,0"/><path class="cls-3" d="M2016.75,1008.75v216a36,36,0,0,1-72,0v-216"/><circle class="cls-3" cx="2052.75" cy="1278.75" r="36"/><path class="cls-3" d="M2016.75,1170.75a36,36,0,0,1,72,0"/><path class="cls-3" d="M2016.75,1116.75a36,36,0,0,1,72,0"/><path class="cls-3" d="M2016.75,1062.75a36,36,0,0,1,72,0"/><path class="cls-3" d="M2016.75,1062.75a36,36,0,0,1,72,0"/><path class="cls-3" d="M2016.75,1278.75v-216a36,36,0,0,1,72,0v216"/><circle class="cls-3" cx="1620.75" cy="198.75" r="36"/><path class="cls-3" d="M1656.75,306.75a36,36,0,0,1-72,0"/><path class="cls-3" d="M1656.75,360.75a36,36,0,0,1-72,0"/><path class="cls-3" d="M1656.75,414.75a36,36,0,0,1-72,0"/><path class="cls-3" d="M1656.75,414.75a36,36,0,0,1-72,0"/><path class="cls-3" d="M1656.75,198.75v216a36,36,0,0,1-72,0v-216"/><circle class="cls-3" cx="1692.75" cy="468.75" r="36"/><path class="cls-3" d="M1656.75,360.75a36,36,0,0,1,72,0"/><path class="cls-3" d="M1656.75,306.75a36,36,0,0,1,72,0"/><path class="cls-3" d="M1656.75,252.75a36,36,0,0,1,72,0"/><path class="cls-3" d="M1656.75,252.75a36,36,0,0,1,72,0"/><path class="cls-3" d="M1656.75,468.75v-216a36,36,0,0,1,72,0v216"/><circle class="cls-3" cx="1476.75" cy="36.75" r="36"/><path class="cls-3" d="M1512.75,144.75a36,36,0,0,1-72,0"/><path class="cls-3" d="M1512.75,198.75a36,36,0,0,1-72,0"/><path class="cls-3" d="M1512.75,252.75a36,36,0,0,1-72,0"/><path class="cls-3" d="M1512.75,252.75a36,36,0,0,1-72,0"/><path class="cls-3" d="M1512.75,36.75v216a36,36,0,0,1-72,0v-216"/><circle class="cls-3" cx="1548.75" cy="306.75" r="36"/><path class="cls-3" d="M1512.75,198.75a36,36,0,0,1,72,0"/><path class="cls-3" d="M1512.75,144.75a36,36,0,0,1,72,0"/><path class="cls-3" d="M1512.75,90.75a36,36,0,0,1,72,0"/><path class="cls-3" d="M1512.75,90.75a36,36,0,0,1,72,0"/><path class="cls-3" d="M1512.75,306.75v-216a36,36,0,0,1,72,0v216"/><circle class="cls-3" cx="1764.75" cy="360.75" r="36"/><path class="cls-3" d="M1800.75,468.75a36,36,0,0,1-72,0"/><path class="cls-3" d="M1800.75,522.75a36,36,0,0,1-72,0"/><path class="cls-3" d="M1800.75,576.75a36,36,0,0,1-72,0"/><path class="cls-3" d="M1800.75,576.75a36,36,0,0,1-72,0"/><path class="cls-3" d="M1800.75,360.75v216a36,36,0,0,1-72,0v-216"/><circle class="cls-3" cx="1836.75" cy="630.75" r="36"/><path class="cls-3" d="M1800.75,522.75a36,36,0,0,1,72,0"/><path class="cls-3" d="M1800.75,468.75a36,36,0,0,1,72,0"/><path class="cls-3" d="M1800.75,414.75a36,36,0,0,1,72,0"/><path class="cls-3" d="M1800.75,414.75a36,36,0,0,1,72,0"/><path class="cls-3" d="M1800.75,630.75v-216a36,36,0,0,1,72,0v216"/><circle class="cls-3" cx="1908.75" cy="522.75" r="36"/><path class="cls-3" d="M1944.75,630.75a36,36,0,0,1-72,0"/><path class="cls-3" d="M1944.75,684.75a36,36,0,0,1-72,0"/><path class="cls-3" d="M1944.75,738.75a36,36,0,0,1-72,0"/><path class="cls-3" d="M1944.75,738.75a36,36,0,0,1-72,0"/><path class="cls-3" d="M1944.75,522.75v216a36,36,0,0,1-72,0v-216"/><circle class="cls-3" cx="1980.75" cy="792.75" r="36"/><path class="cls-3" d="M1944.75,684.75a36,36,0,0,1,72,0"/><path class="cls-3" d="M1944.75,630.75a36,36,0,0,1,72,0"/><path class="cls-3" d="M1944.75,576.75a36,36,0,0,1,72,0"/><path class="cls-3" d="M1944.75,576.75a36,36,0,0,1,72,0"/><path class="cls-3" d="M1944.75,792.75v-216a36,36,0,0,1,72,0v216"/><circle class="cls-3" cx="2052.75" cy="684.75" r="36"/><path class="cls-3" d="M2088.75,792.75a36,36,0,0,1-72,0"/><path class="cls-3" d="M2088.75,846.75a36,36,0,0,1-72,0"/><path class="cls-3" d="M2088.75,900.75a36,36,0,0,1-72,0"/><path class="cls-3" d="M2088.75,900.75a36,36,0,0,1-72,0"/><path class="cls-3" d="M2088.75,684.75v216a36,36,0,0,1-72,0v-216"/><circle class="cls-3" cx="2124.75" cy="954.75" r="36"/><path class="cls-3" d="M2088.75,846.75a36,36,0,0,1,72,0"/><path class="cls-3" d="M2088.75,792.75a36,36,0,0,1,72,0"/><path class="cls-3" d="M2088.75,738.75a36,36,0,0,1,72,0"/><path class="cls-3" d="M2088.75,738.75a36,36,0,0,1,72,0"/><path class="cls-3" d="M2088.75,954.75v-216a36,36,0,0,1,72,0v216"/><circle class="cls-3" cx="2196.75" cy="846.75" r="36"/><path class="cls-3" d="M2232.75,954.75a36,36,0,0,1-72,0"/><path class="cls-3" d="M2232.75,1008.75a36,36,0,0,1-72,0"/><path class="cls-3" d="M2232.75,1062.75a36,36,0,0,1-72,0"/><path class="cls-3" d="M2232.75,1062.75a36,36,0,0,1-72,0"/><path class="cls-3" d="M2232.75,846.75v216a36,36,0,0,1-72,0v-216"/><circle class="cls-3" cx="2268.75" cy="1116.75" r="36"/><path class="cls-3" d="M2232.75,1008.75a36,36,0,0,1,72,0"/><path class="cls-3" d="M2232.75,954.75a36,36,0,0,1,72,0"/><path class="cls-3" d="M2232.75,900.75a36,36,0,0,1,72,0"/><path class="cls-3" d="M2232.75,900.75a36,36,0,0,1,72,0"/><path class="cls-3" d="M2232.75,1116.75v-216a36,36,0,0,1,72,0v216"/><circle class="cls-3" cx="2340.75" cy="1008.75" r="36"/><path class="cls-3" d="M2376.75,1116.75a36,36,0,0,1-72,0"/><path class="cls-3" d="M2376.75,1170.75a36,36,0,0,1-72,0"/><path class="cls-3" d="M2376.75,1224.75a36,36,0,0,1-72,0"/><path class="cls-3" d="M2376.75,1224.75a36,36,0,0,1-72,0"/><path class="cls-3" d="M2376.75,1008.75v216a36,36,0,0,1-72,0v-216"/><circle class="cls-3" cx="2412.75" cy="1278.75" r="36"/><path class="cls-3" d="M2376.75,1170.75a36,36,0,0,1,72,0"/><path class="cls-3" d="M2376.75,1116.75a36,36,0,0,1,72,0"/><path class="cls-3" d="M2376.75,1062.75a36,36,0,0,1,72,0"/><path class="cls-3" d="M2376.75,1062.75a36,36,0,0,1,72,0"/><path class="cls-3" d="M2376.75,1278.75v-216a36,36,0,0,1,72,0v216"/><circle class="cls-3" cx="1980.75" cy="198.75" r="36"/><path class="cls-3" d="M2016.75,306.75a36,36,0,0,1-72,0"/><path class="cls-3" d="M2016.75,360.75a36,36,0,0,1-72,0"/><path class="cls-3" d="M2016.75,414.75a36,36,0,0,1-72,0"/><path class="cls-3" d="M2016.75,414.75a36,36,0,0,1-72,0"/><path class="cls-3" d="M2016.75,198.75v216a36,36,0,0,1-72,0v-216"/><circle class="cls-3" cx="2052.75" cy="468.75" r="36"/><path class="cls-3" d="M2016.75,360.75a36,36,0,0,1,72,0"/><path class="cls-3" d="M2016.75,306.75a36,36,0,0,1,72,0"/><path class="cls-3" d="M2016.75,252.75a36,36,0,0,1,72,0"/><path class="cls-3" d="M2016.75,252.75a36,36,0,0,1,72,0"/><path class="cls-3" d="M2016.75,468.75v-216a36,36,0,0,1,72,0v216"/><circle class="cls-3" cx="1836.75" cy="36.75" r="36"/><path class="cls-3" d="M1872.75,144.75a36,36,0,0,1-72,0"/><path class="cls-3" d="M1872.75,198.75a36,36,0,0,1-72,0"/><path class="cls-3" d="M1872.75,252.75a36,36,0,0,1-72,0"/><path class="cls-3" d="M1872.75,252.75a36,36,0,0,1-72,0"/><path class="cls-3" d="M1872.75,36.75v216a36,36,0,0,1-72,0v-216"/><circle class="cls-3" cx="1908.75" cy="306.75" r="36"/><path class="cls-3" d="M1872.75,198.75a36,36,0,0,1,72,0"/><path class="cls-3" d="M1872.75,144.75a36,36,0,0,1,72,0"/><path class="cls-3" d="M1872.75,90.75a36,36,0,0,1,72,0"/><path class="cls-3" d="M1872.75,90.75a36,36,0,0,1,72,0"/><path class="cls-3" d="M1872.75,306.75v-216a36,36,0,0,1,72,0v216"/><circle class="cls-3" cx="2124.75" cy="360.75" r="36"/><path class="cls-3" d="M2160.75,468.75a36,36,0,0,1-72,0"/><path class="cls-3" d="M2160.75,522.75a36,36,0,0,1-72,0"/><path class="cls-3" d="M2160.75,576.75a36,36,0,0,1-72,0"/><path class="cls-3" d="M2160.75,576.75a36,36,0,0,1-72,0"/><path class="cls-3" d="M2160.75,360.75v216a36,36,0,0,1-72,0v-216"/><circle class="cls-3" cx="2196.75" cy="630.75" r="36"/><path class="cls-3" d="M2160.75,522.75a36,36,0,0,1,72,0"/><path class="cls-3" d="M2160.75,468.75a36,36,0,0,1,72,0"/><path class="cls-3" d="M2160.75,414.75a36,36,0,0,1,72,0"/><path class="cls-3" d="M2160.75,414.75a36,36,0,0,1,72,0"/><path class="cls-3" d="M2160.75,630.75v-216a36,36,0,0,1,72,0v216"/><circle class="cls-3" cx="2268.75" cy="522.75" r="36"/><path class="cls-3" d="M2304.75,630.75a36,36,0,0,1-72,0"/><path class="cls-3" d="M2304.75,684.75a36,36,0,0,1-72,0"/><path class="cls-3" d="M2304.75,738.75a36,36,0,0,1-72,0"/><path class="cls-3" d="M2304.75,738.75a36,36,0,0,1-72,0"/><path class="cls-3" d="M2304.75,522.75v216a36,36,0,0,1-72,0v-216"/><circle class="cls-3" cx="2340.75" cy="792.75" r="36"/><path class="cls-3" d="M2304.75,684.75a36,36,0,0,1,72,0"/><path class="cls-3" d="M2304.75,630.75a36,36,0,0,1,72,0"/><path class="cls-3" d="M2304.75,576.75a36,36,0,0,1,72,0"/><path class="cls-3" d="M2304.75,576.75a36,36,0,0,1,72,0"/><path class="cls-3" d="M2304.75,792.75v-216a36,36,0,0,1,72,0v216"/><circle class="cls-3" cx="2412.75" cy="684.75" r="36"/><path class="cls-3" d="M2448.75,792.75a36,36,0,0,1-72,0"/><path class="cls-3" d="M2448.75,846.75a36,36,0,0,1-72,0"/><path class="cls-3" d="M2448.75,900.75a36,36,0,0,1-72,0"/><path class="cls-3" d="M2448.75,900.75a36,36,0,0,1-72,0"/><path class="cls-3" d="M2448.75,684.75v216a36,36,0,0,1-72,0v-216"/><circle class="cls-3" cx="2484.75" cy="954.75" r="36"/><path class="cls-3" d="M2448.75,846.75a36,36,0,0,1,72,0"/><path class="cls-3" d="M2448.75,792.75a36,36,0,0,1,72,0"/><path class="cls-3" d="M2448.75,738.75a36,36,0,0,1,72,0"/><path class="cls-3" d="M2448.75,738.75a36,36,0,0,1,72,0"/><path class="cls-3" d="M2448.75,954.75v-216a36,36,0,0,1,72,0v216"/><circle class="cls-3" cx="2556.75" cy="846.75" r="36"/><path class="cls-3" d="M2592.75,954.75a36,36,0,0,1-72,0"/><path class="cls-3" d="M2592.75,1008.75a36,36,0,0,1-72,0"/><path class="cls-3" d="M2592.75,1062.75a36,36,0,0,1-72,0"/><path class="cls-3" d="M2592.75,1062.75a36,36,0,0,1-72,0"/><path class="cls-3" d="M2592.75,846.75v216a36,36,0,0,1-72,0v-216"/><circle class="cls-3" cx="2628.75" cy="1116.75" r="36"/><path class="cls-3" d="M2592.75,1008.75a36,36,0,0,1,72,0"/><path class="cls-3" d="M2592.75,954.75a36,36,0,0,1,72,0"/><path class="cls-3" d="M2592.75,900.75a36,36,0,0,1,72,0"/><path class="cls-3" d="M2592.75,900.75a36,36,0,0,1,72,0"/><path class="cls-3" d="M2592.75,1116.75v-216a36,36,0,0,1,72,0v216"/><circle class="cls-3" cx="2700.75" cy="1008.75" r="36"/><path class="cls-3" d="M2736.75,1116.75a36,36,0,0,1-72,0"/><path class="cls-3" d="M2736.75,1170.75a36,36,0,0,1-72,0"/><path class="cls-3" d="M2736.75,1224.75a36,36,0,0,1-72,0"/><path class="cls-3" d="M2736.75,1224.75a36,36,0,0,1-72,0"/><path class="cls-3" d="M2736.75,1008.75v216a36,36,0,0,1-72,0v-216"/><circle class="cls-3" cx="2772.75" cy="1278.75" r="36"/><path class="cls-3" d="M2736.75,1170.75a36,36,0,0,1,72,0"/><path class="cls-3" d="M2736.75,1116.75a36,36,0,0,1,72,0"/><path class="cls-3" d="M2736.75,1062.75a36,36,0,0,1,72,0"/><path class="cls-3" d="M2736.75,1062.75a36,36,0,0,1,72,0"/><path class="cls-3" d="M2736.75,1278.75v-216a36,36,0,0,1,72,0v216"/><circle class="cls-3" cx="2340.75" cy="198.75" r="36"/><path class="cls-3" d="M2376.75,306.75a36,36,0,0,1-72,0"/><path class="cls-3" d="M2376.75,360.75a36,36,0,0,1-72,0"/><path class="cls-3" d="M2376.75,414.75a36,36,0,0,1-72,0"/><path class="cls-3" d="M2376.75,414.75a36,36,0,0,1-72,0"/><path class="cls-3" d="M2376.75,198.75v216a36,36,0,0,1-72,0v-216"/><circle class="cls-3" cx="2412.75" cy="468.75" r="36"/><path class="cls-3" d="M2376.75,360.75a36,36,0,0,1,72,0"/><path class="cls-3" d="M2376.75,306.75a36,36,0,0,1,72,0"/><path class="cls-3" d="M2376.75,252.75a36,36,0,0,1,72,0"/><path class="cls-3" d="M2376.75,252.75a36,36,0,0,1,72,0"/><path class="cls-3" d="M2376.75,468.75v-216a36,36,0,0,1,72,0v216"/><circle class="cls-3" cx="2196.75" cy="36.75" r="36"/><path class="cls-3" d="M2232.75,144.75a36,36,0,0,1-72,0"/><path class="cls-3" d="M2232.75,198.75a36,36,0,0,1-72,0"/><path class="cls-3" d="M2232.75,252.75a36,36,0,0,1-72,0"/><path class="cls-3" d="M2232.75,252.75a36,36,0,0,1-72,0"/><path class="cls-3" d="M2232.75,36.75v216a36,36,0,0,1-72,0v-216"/><circle class="cls-3" cx="2268.75" cy="306.75" r="36"/><path class="cls-3" d="M2232.75,198.75a36,36,0,0,1,72,0"/><path class="cls-3" d="M2232.75,144.75a36,36,0,0,1,72,0"/><path class="cls-3" d="M2232.75,90.75a36,36,0,0,1,72,0"/><path class="cls-3" d="M2232.75,90.75a36,36,0,0,1,72,0"/><path class="cls-3" d="M2232.75,306.75v-216a36,36,0,0,1,72,0v216"/><circle class="cls-3" cx="2484.75" cy="360.75" r="36"/><path class="cls-3" d="M2520.75,468.75a36,36,0,0,1-72,0"/><path class="cls-3" d="M2520.75,522.75a36,36,0,0,1-72,0"/><path class="cls-3" d="M2520.75,576.75a36,36,0,0,1-72,0"/><path class="cls-3" d="M2520.75,576.75a36,36,0,0,1-72,0"/><path class="cls-3" d="M2520.75,360.75v216a36,36,0,0,1-72,0v-216"/><circle class="cls-3" cx="2556.75" cy="630.75" r="36"/><path class="cls-3" d="M2520.75,522.75a36,36,0,0,1,72,0"/><path class="cls-3" d="M2520.75,468.75a36,36,0,0,1,72,0"/><path class="cls-3" d="M2520.75,414.75a36,36,0,0,1,72,0"/><path class="cls-3" d="M2520.75,414.75a36,36,0,0,1,72,0"/><path class="cls-3" d="M2520.75,630.75v-216a36,36,0,0,1,72,0v216"/><circle class="cls-3" cx="2628.75" cy="522.75" r="36"/><path class="cls-3" d="M2664.75,630.75a36,36,0,0,1-72,0"/><path class="cls-3" d="M2664.75,684.75a36,36,0,0,1-72,0"/><path class="cls-3" d="M2664.75,738.75a36,36,0,0,1-72,0"/><path class="cls-3" d="M2664.75,738.75a36,36,0,0,1-72,0"/><path class="cls-3" d="M2664.75,522.75v216a36,36,0,0,1-72,0v-216"/><circle class="cls-3" cx="2700.75" cy="792.75" r="36"/><path class="cls-3" d="M2664.75,684.75a36,36,0,0,1,72,0"/><path class="cls-3" d="M2664.75,630.75a36,36,0,0,1,72,0"/><path class="cls-3" d="M2664.75,576.75a36,36,0,0,1,72,0"/><path class="cls-3" d="M2664.75,576.75a36,36,0,0,1,72,0"/><path class="cls-3" d="M2664.75,792.75v-216a36,36,0,0,1,72,0v216"/><circle class="cls-3" cx="2772.75" cy="684.75" r="36"/><path class="cls-3" d="M2808.75,792.75a36,36,0,0,1-72,0"/><path class="cls-3" d="M2808.75,846.75a36,36,0,0,1-72,0"/><path class="cls-3" d="M2808.75,900.75a36,36,0,0,1-72,0"/><path class="cls-3" d="M2808.75,900.75a36,36,0,0,1-72,0"/><path class="cls-3" d="M2808.75,684.75v216a36,36,0,0,1-72,0v-216"/><circle class="cls-3" cx="2844.75" cy="954.75" r="36"/><path class="cls-3" d="M2808.75,846.75a36,36,0,0,1,72,0"/><path class="cls-3" d="M2808.75,792.75a36,36,0,0,1,72,0"/><path class="cls-3" d="M2808.75,738.75a36,36,0,0,1,72,0"/><path class="cls-3" d="M2808.75,738.75a36,36,0,0,1,72,0"/><path class="cls-3" d="M2808.75,954.75v-216a36,36,0,0,1,72,0v216"/><circle class="cls-3" cx="2916.75" cy="846.75" r="36"/><path class="cls-3" d="M2952.75,954.75a36,36,0,0,1-72,0"/><path class="cls-3" d="M2952.75,1008.75a36,36,0,0,1-72,0"/><path class="cls-3" d="M2952.75,1062.75a36,36,0,0,1-72,0"/><path class="cls-3" d="M2952.75,1062.75a36,36,0,0,1-72,0"/><path class="cls-3" d="M2952.75,846.75v216a36,36,0,0,1-72,0v-216"/><circle class="cls-3" cx="2988.75" cy="1116.75" r="36"/><path class="cls-3" d="M2952.75,1008.75a36,36,0,0,1,72,0"/><path class="cls-3" d="M2952.75,954.75a36,36,0,0,1,72,0"/><path class="cls-3" d="M2952.75,900.75a36,36,0,0,1,72,0"/><path class="cls-3" d="M2952.75,900.75a36,36,0,0,1,72,0"/><path class="cls-3" d="M2952.75,1116.75v-216a36,36,0,0,1,72,0v216"/><circle class="cls-3" cx="3060.75" cy="1008.75" r="36"/><path class="cls-3" d="M3096.75,1116.75a36,36,0,0,1-72,0"/><path class="cls-3" d="M3096.75,1170.75a36,36,0,0,1-72,0"/><path class="cls-3" d="M3096.75,1224.75a36,36,0,0,1-72,0"/><path class="cls-3" d="M3096.75,1224.75a36,36,0,0,1-72,0"/><path class="cls-3" d="M3096.75,1008.75v216a36,36,0,0,1-72,0v-216"/><circle class="cls-3" cx="3132.75" cy="1278.75" r="36"/><path class="cls-3" d="M3096.75,1170.75a36,36,0,0,1,72,0"/><path class="cls-3" d="M3096.75,1116.75a36,36,0,0,1,72,0"/><path class="cls-3" d="M3096.75,1062.75a36,36,0,0,1,72,0"/><path class="cls-3" d="M3096.75,1062.75a36,36,0,0,1,72,0"/><path class="cls-3" d="M3096.75,1278.75v-216a36,36,0,0,1,72,0v216"/><line class="cls-3" x1="1404.75" y1="288.75" x2="1404.75" y2="1134.75"/><line class="cls-3" x1="1332.75" y1="288.75" x2="1332.75" y2="1134.75"/><line class="cls-3" x1="1260.75" y1="288.75" x2="1260.75" y2="1134.75"/><line class="cls-3" x1="1188.75" y1="288.75" x2="1188.75" y2="1134.75"/><line class="cls-3" x1="1116.75" y1="288.75" x2="1116.75" y2="1134.75"/><line class="cls-3" x1="1044.75" y1="288.75" x2="1044.75" y2="1134.75"/><line class="cls-3" x1="972.75" y1="288.75" x2="972.75" y2="1134.75"/><line class="cls-3" x1="900.75" y1="288.75" x2="900.75" y2="1134.75"/><line class="cls-3" x1="1980.75" y1="288.75" x2="1980.75" y2="1134.75"/><line class="cls-3" x1="1908.75" y1="288.75" x2="1908.75" y2="1134.75"/><line class="cls-3" x1="1836.75" y1="288.75" x2="1836.75" y2="1134.75"/><line class="cls-3" x1="1764.75" y1="288.75" x2="1764.75" y2="1134.75"/><line class="cls-3" x1="1692.75" y1="288.75" x2="1692.75" y2="1134.75"/><line class="cls-3" x1="1620.75" y1="288.75" x2="1620.75" y2="1134.75"/><line class="cls-3" x1="1548.75" y1="288.75" x2="1548.75" y2="1134.75"/><line class="cls-3" x1="1476.75" y1="288.75" x2="1476.75" y2="1134.75"/><line class="cls-3" x1="2556.75" y1="288.75" x2="2556.75" y2="1134.75"/><line class="cls-3" x1="2484.75" y1="288.75" x2="2484.75" y2="1134.75"/><line class="cls-3" x1="2412.75" y1="288.75" x2="2412.75" y2="1134.75"/><line class="cls-3" x1="2340.75" y1="288.75" x2="2340.75" y2="1134.75"/><line class="cls-3" x1="2268.75" y1="288.75" x2="2268.75" y2="1134.75"/><line class="cls-3" x1="2196.75" y1="288.75" x2="2196.75" y2="1134.75"/><line class="cls-3" x1="2124.75" y1="288.75" x2="2124.75" y2="1134.75"/><line class="cls-3" x1="2052.75" y1="288.75" x2="2052.75" y2="1134.75"/></g></g></svg>