<svg xmlns="http://www.w3.org/2000/svg" viewBox="0 0 146.5 146.5"><defs><style>.cls-1{fill:#425030;}</style></defs><g id="Layer_2" data-name="Layer 2"><g id="Layer_4" data-name="Layer 4"><path class="cls-1" d="M112.26,35.81l.08-1.31-1.3,0c-.32,0-30.7-.26-37.79,30.5-7.09-30.76-37.48-30.53-37.78-30.5l-1.31,0,.09,1.31C36,62.18,53.57,70.57,64.54,73.25,53.57,75.93,36,84.33,34.25,110.7l-.09,1.3,1.31,0h.08c1.78,0,30.82-.54,37.7-30.59C80.13,111.49,109.18,112,111,112H111l1.3,0-.08-1.3C110.55,84.33,92.93,75.93,82,73.25,92.93,70.57,110.55,62.18,112.26,35.81ZM36.85,37a41.17,41.17,0,0,1,15.79,4.24C63.88,47,70.35,57.29,71.88,72,65.49,71.55,39.59,68,36.85,37Zm0,72.49c2.74-31,28.65-34.55,35-34.95C68.58,106.1,43.08,109.22,36.84,109.5Zm72.82,0a41.16,41.16,0,0,1-15.8-4.24c-11.24-5.71-17.7-16-19.23-30.69a43.33,43.33,0,0,1,16,4.45C102,84.83,108.38,95.07,109.66,109.49ZM74.63,72c3.29-31.55,28.8-34.66,35-34.95C106.92,68,81,71.55,74.63,72Z"/><path class="cls-1" d="M73.25,0A73.25,73.25,0,1,0,146.5,73.25,73.33,73.33,0,0,0,73.25,0Zm0,144A70.75,70.75,0,1,1,144,73.25,70.83,70.83,0,0,1,73.25,144Z"/></g></g></svg>