<svg xmlns="http://www.w3.org/2000/svg" viewBox="0 0 146.5 146.5"><defs><style>.cls-1{fill:#425030;}</style></defs><g id="Layer_2" data-name="Layer 2"><g id="Layer_4" data-name="Layer 4"><path class="cls-1" d="M73.25,0A73.25,73.25,0,1,0,146.5,73.25,73.33,73.33,0,0,0,73.25,0ZM74.5,2.53A70.36,70.36,0,0,1,115,16.21L74.5,86.44ZM72,86.36,31.48,16.19A70.38,70.38,0,0,1,72,2.53Zm72-13.11a70.43,70.43,0,0,1-2,16.53H77.86l63.25-36.52A70.62,70.62,0,0,1,144,73.25Zm-3.67-22.43L76.76,87.53,117,17.75A70.87,70.87,0,0,1,140.33,50.82ZM29.48,17.72,70,88,6.09,51A71.12,71.12,0,0,1,29.48,17.72ZM5.33,53.48,68.2,89.78H4.47a70.41,70.41,0,0,1,.86-36.3Zm-.21,38.8H72V144A70.86,70.86,0,0,1,5.12,92.28ZM74.5,144V92.28h66.88A70.86,70.86,0,0,1,74.5,144Z"/></g></g></svg>