<svg xmlns="http://www.w3.org/2000/svg" viewBox="0 0 146.03 146.5"><defs><style>.cls-1{fill:#425030;}</style></defs><g id="Layer_2" data-name="Layer 2"><g id="Layer_4" data-name="Layer 4"><path class="cls-1" d="M73,0a73.25,73.25,0,1,0,73,73.25A73.21,73.21,0,0,0,73,0Zm0,2.5a70.7,70.7,0,0,1,70.48,69.21H2.54A70.69,70.69,0,0,1,73,2.5ZM2.52,74.21H70.36l-34,59.43A70.84,70.84,0,0,1,2.52,74.21Zm36,60.69L73.24,74.21h.12l33.73,61a70.09,70.09,0,0,1-68.61-.26Zm70.78-1L76.21,74.21H143.5A70.81,70.81,0,0,1,109.26,133.91Z"/></g></g></svg>